<svg aria-hidden="true" style="position: absolute; width: 0; height: 0; overflow: hidden;" version="1.1" xmlns="http://www.w3.org/2000/svg" xmlns:xlink="http://www.w3.org/1999/xlink">
<defs>

<!-- Hertz -->
<symbol id="icon-hertz" viewBox="0 0 32 32">
<path d="M5.835 12.001l-2.582 0.009c-1.046 2.483-2.115 5.34-3.161 7.882l2.59-0.009c0.403-1.068 0.837-2.136 1.27-3.205l1.719-0.004c-0.434 1.112-0.862 2.152-1.251 3.22l2.56 0.004c1.046-2.613 2.076-5.299 3.152-7.897l-2.578 0.009c-0.403 1.012-0.792 1.977-1.197 2.974l-1.718 0.006c0.387-0.982 0.761-1.964 1.195-2.989zM23.377 13.615l0.581-1.574-2.201 0.007c-0.852 2.108-1.862 4.739-2.54 6.382-0.064 0.172-0.155 0.63 0.064 0.894 0.653 0.805 2.069 0.756 3.124 0.624 1.732-0.179 1.968-2.040 2.551-3.31l-1.93 0.022-0.733 1.832c-0.048 0.125-0.165 0.248-0.346 0.289-0.050 0.014-0.407 0.061-0.513-0.099-0.042-0.058-0.046-0.169-0.016-0.259 0.418-1.097 0.852-2.122 1.299-3.206l2.81-0.010 0.657-1.607-2.809 0.016zM20.588 13.624l-3.619 0.013c-0.806 2.050-1.689 4.215-2.48 6.251l2.171 0.007 0.896-2.353c0.359-0.81 0.521-1.646 1.182-2.225 0.301-0.26 0.89-0.205 1.237-0.047 0.21-0.563 0.449-1.083 0.613-1.646zM32.091 13.601l-5.202 0.016c-0.225 0.506-0.418 1.069-0.628 1.589l2.337-0.009 0.031 0.044c-1.247 1.1-2.405 2.099-3.637 3.184-0.209 0.49-0.388 1.010-0.582 1.487l5.353-0.004c0.224-0.476 0.418-1.054 0.613-1.572l-2.549-0.007c1.217-1.099 2.39-2.126 3.683-3.24 0.194-0.507 0.419-0.997 0.582-1.488zM15.419 14.491c0.216 0.717-0.627 2.376-0.775 2.672l-3.452 0.011c-0.1 0.283-0.515 1.018-0.337 1.395 0.103 0.157 0.348 0.201 0.554 0.161 0.512-0.087 0.721-0.564 0.87-0.997l2.141-0.008c-0.358 0.997-1.044 2.048-2.249 2.21-1.261 0.164-3.028 0.285-3.55-0.748-0.129-0.349-0.115-0.771 0.086-1.338 0.37-0.929 0.732-1.894 1.165-2.876 0.583-1.314 2.181-1.536 3.598-1.483 0.785 0.040 1.73 0.175 1.949 1.001zM12.631 14.761c-0.572 0.075-0.763 0.636-0.932 1.070l1.312 0.010s0.431-0.649 0.174-0.966c-0.096-0.111-0.344-0.129-0.554-0.114z"></path>
</symbol>

<!-- Europcar -->
<symbol id="icon-europcar" viewBox="0 0 32 32">
<path d="M15.912 18.033c-9.302 0-15.912 0.575-15.912 0.575v0.249h16.462l0.175-0.824zM17.135 18.033l-0.15 0.824h15.015v-0.249s-6.202-0.528-14.865-0.575z"></path>
<path d="M4.066 13.145l-0.874 4.115h3.142l0.125-0.773h-2.145l0.199-0.947h1.946l0.15-0.824h-1.946l0.175-0.774h2.17l0.125-0.799zM14.566 14.142c-1.225 0-1.721 0.652-1.921 1.597-0.201 0.944 0.267 1.62 1.246 1.62 1.164 0 1.721-0.652 1.921-1.597 0.202-0.944-0.116-1.62-1.246-1.62zM21.574 14.142c-1.225 0-1.696 0.652-1.896 1.597s0.242 1.62 1.223 1.62c0.994 0 1.556-0.473 1.821-1.198h-0.922c-0.125 0.294-0.328 0.5-0.748 0.5-0.55 0-0.6-0.469-0.5-0.947s0.347-0.947 0.897-0.947c0.424 0 0.541 0.297 0.525 0.648h0.897c0.055-0.757-0.312-1.273-1.296-1.273zM18.356 14.192c-0.276 0-0.722 0.066-0.947 0.299l0.050-0.224h-0.897c-0.030 0.197-0.922 4.589-0.922 4.589h0.874l0.371-1.796c0.172 0.267 0.659 0.324 0.874 0.324 0.879 0 1.284-0.851 1.447-1.62 0.172-0.808 0.007-1.572-0.849-1.572zM24.992 14.192c-1.569-0.043-1.497 0.972-1.497 0.972h0.824s-0.011-0.399 0.573-0.399c0 0 0.528-0.023 0.449 0.349 0 0-0.011 0.322-0.374 0.299 0 0-1.739-0.181-1.871 1.098 0 0-0.072 0.897 0.947 0.897 0 0 0.67-0.020 0.972-0.349 0 0 0.084 0.199 0.374 0.199h0.5l0.15-0.598-0.075-0.050s-0.061 0.007-0.025-0.15l0.324-1.572c0.141-0.682-1.271-0.695-1.271-0.695zM7.432 14.268l-0.424 1.946c-0.021 0.102-0.057 0.288-0.050 0.474 0.014 0.435 0.55 0.648 0.849 0.648 0.417 0 0.684-0.104 0.897-0.274v0.199h0.897c0.020-0.175 0.045-0.349 0.075-0.525l0.525-2.469h-0.899l-0.374 1.721c-0.106 0.437-0.424 0.525-0.648 0.525-0.385 0-0.41-0.168-0.349-0.449l0.399-1.796zM10.8 14.268c-0.034 0.222-0.598 2.994-0.598 2.994h0.947l0.324-1.547c0.039-0.195 0.027-0.398 0.15-0.573 0.098-0.141 0.347-0.188 0.5-0.199h0.424l0.174-0.673c-0.412 0-0.68-0.009-1.022 0.224v-0.226zM27.087 14.268c-0.036 0.222-0.598 2.994-0.598 2.994h0.947l0.299-1.547c0.039-0.195 0.052-0.398 0.175-0.573 0.098-0.141 0.347-0.188 0.5-0.199h0.399l0.199-0.673c-0.412 0-0.68-0.009-1.022 0.224v-0.226zM14.44 14.765c0.55 0 0.575 0.494 0.475 0.972s-0.267 0.922-0.874 0.922c-0.55 0-0.6-0.469-0.5-0.947 0.104-0.476 0.349-0.947 0.899-0.947zM17.957 14.891c0.408 0 0.521 0.389 0.424 0.849-0.098 0.46-0.338 0.849-0.799 0.849-0.483 0-0.537-0.437-0.449-0.849 0.090-0.414 0.34-0.849 0.824-0.849zM25.116 15.938s-0.131 0.824-0.799 0.824c0 0-0.374 0.025-0.374-0.274 0 0 0.009-0.383 0.548-0.449 0.002 0 0.421-0.029 0.625-0.1z"></path>
</symbol>

<!-- National -->
<symbol id="icon-national" viewBox="0 0 32 32">
<path d="M30.979 13.688l-0.952 4.852h0.748l0.944-4.852h-0.74zM28.080 18.568c0.048-0.016 0.1-0.036 0.148-0.060 0.164-0.080 0.316-0.204 0.452-0.372v0.056c0 0.132 0.044 0.236 0.136 0.3 0.088 0.068 0.22 0.104 0.396 0.104h-0c0.003 0 0.005 0 0.008 0 0.068 0 0.135-0.004 0.193-0.012l0.006-0.001c0.061-0.009 0.12-0.023 0.17-0.039l0.092-0.472h-0.060c-0.080 0-0.136-0.020-0.172-0.056-0.036-0.040-0.056-0.1-0.056-0.18 0-0.028 0.004-0.060 0.008-0.096 0.004-0.040 0.012-0.092 0.024-0.164l0.26-1.312c0.016-0.064 0.024-0.128 0.028-0.192 0.008-0.060 0.012-0.116 0.012-0.176 0-0.28-0.108-0.492-0.328-0.64-0.216-0.148-0.536-0.22-0.956-0.22-0.128 0-0.248 0.004-0.36 0.020v0.584c0.096-0.024 0.212-0.036 0.348-0.036 0.208 0 0.364 0.028 0.46 0.084 0.092 0.056 0.14 0.144 0.14 0.264 0 0.272-0.264 0.436-0.792 0.484-0.056 0.004-0.108 0.008-0.156 0.016v0.54c0.052-0.008 0.108-0.012 0.172-0.020 0.248-0.020 0.444-0.060 0.596-0.12-0.044 0.4-0.148 0.704-0.32 0.908l-0.001 0.002c-0.11 0.138-0.264 0.239-0.447 0.282v0.524zM28.080 15.056c-0.272 0.036-0.496 0.116-0.668 0.24-0.24 0.176-0.392 0.44-0.448 0.796h0.7c0.040-0.176 0.116-0.3 0.232-0.376 0.048-0.032 0.108-0.056 0.184-0.076v-0.584zM28.080 16.452c-0.108 0.008-0.2 0.020-0.272 0.028-0.384 0.048-0.68 0.172-0.884 0.372-0.204 0.196-0.304 0.46-0.304 0.788 0 0.304 0.092 0.544 0.28 0.724 0.188 0.176 0.444 0.268 0.764 0.268h0c0.149-0 0.292-0.024 0.416-0.064v-0.524l0.007-0.001c-0.077 0.019-0.157 0.030-0.24 0.030-0.005 0-0.010-0-0.015-0-0.16 0-0.288-0.044-0.384-0.132-0.092-0.088-0.14-0.208-0.14-0.356 0-0.136 0.040-0.248 0.12-0.344 0.076-0.092 0.192-0.16 0.34-0.2 0.060-0.016 0.16-0.032 0.312-0.048v-0.54zM21.368 18.628c0.468-0.044 0.86-0.24 1.172-0.588 0.36-0.396 0.536-0.908 0.536-1.528 0-0.472-0.132-0.836-0.396-1.104-0.268-0.264-0.632-0.4-1.096-0.4-0.076 0-0.148 0.004-0.216 0.012v0.604c0.052-0.008 0.108-0.012 0.16-0.012 0.256 0 0.452 0.072 0.592 0.22s0.208 0.352 0.208 0.616c0 0.46-0.104 0.84-0.32 1.132-0.172 0.24-0.388 0.384-0.64 0.428v0.62zM26.536 16.272c0.016-0.076 0.028-0.144 0.036-0.212 0.008-0.060 0.012-0.12 0.012-0.176 0-0.276-0.084-0.484-0.256-0.632-0.168-0.144-0.412-0.216-0.732-0.216h0c-0.002 0-0.004 0-0.006 0-0.223 0-0.433 0.056-0.61 0.152-0.2 0.1-0.388 0.252-0.568 0.452l0.104-0.528h-0.656l-0.668 3.428h0.712l0.348-1.776c0.068-0.364 0.2-0.64 0.392-0.832 0.196-0.196 0.436-0.292 0.732-0.292 0.144 0 0.256 0.036 0.336 0.104 0.084 0.068 0.12 0.164 0.12 0.284 0 0.040 0 0.084-0.008 0.132-0.004 0.048-0.012 0.104-0.028 0.172l-0.436 2.208h0.728l0.448-2.268zM21.368 15.020c-0.46 0.044-0.844 0.24-1.156 0.588-0.248 0.276-0.408 0.6-0.488 0.98v1.012c0.064 0.252 0.18 0.464 0.348 0.636 0.264 0.268 0.632 0.4 1.096 0.4 0.068 0 0.136-0.004 0.2-0.008v-0.62c-0.060 0.012-0.12 0.016-0.18 0.016-0.248 0-0.44-0.076-0.576-0.224s-0.204-0.36-0.204-0.632c0-0.44 0.108-0.808 0.324-1.112 0.176-0.24 0.392-0.388 0.636-0.432v-0.604zM19.724 15.344v-0.224h0.052l-0.052 0.224zM19.724 14.788h0.056l0.168-0.736h-0.224v0.736zM19.724 14.052h-0.616l-0.168 0.736h0.784v-0.736zM19.724 15.12h-0.784l-0.68 2.936v0.484h0.732l0.732-3.196v-0.224zM19.724 16.588v1.012c-0.032-0.144-0.048-0.3-0.048-0.472v0.001c-0-0.005-0-0.010-0-0.015 0-0.186 0.017-0.368 0.048-0.526zM18.26 15.664v-0.552h0.112l-0.108 0.552h-0.004zM18.26 15.112l-0.436 0 0.188-0.96h-0.716l-0.184 0.96h-0.488l-0.104 0.552h0.488l-0.396 2.012c-0.016 0.068-0.024 0.132-0.032 0.192-0.004 0.060-0.008 0.108-0.008 0.148 0 0.208 0.060 0.36 0.184 0.46s0.312 0.148 0.568 0.148c0.080 0 0.164-0.008 0.24-0.020l0.008-0.001c0.078-0.012 0.153-0.030 0.216-0.051l0.112-0.584 0.011-0.002c-0.061 0.015-0.124 0.026-0.195 0.034-0.060 0.008-0.12 0.012-0.176 0.012-0.080 0-0.14-0.016-0.176-0.052-0.040-0.032-0.060-0.080-0.060-0.148 0-0.024 0.004-0.060 0.012-0.104l0.001-0.007c0.005-0.047 0.012-0.093 0.019-0.129l0.384-1.908h0.54v-0.552zM18.26 18.056v0.484h-0.112l0.112-0.484zM14.436 18.568c0.052-0.016 0.1-0.036 0.148-0.060 0.168-0.080 0.32-0.204 0.452-0.372v0.056c0 0.132 0.048 0.236 0.136 0.3 0.092 0.068 0.224 0.104 0.4 0.104h-0c0.003 0 0.005 0 0.008 0 0.066 0 0.132-0.004 0.189-0.012 0.064-0.008 0.12-0.024 0.176-0.040l0.088-0.472h-0.052c-0.080 0-0.14-0.020-0.176-0.056-0.036-0.040-0.052-0.1-0.052-0.18 0-0.028 0-0.060 0.004-0.096 0.004-0.040 0.012-0.092 0.028-0.164l0.256-1.312c0.012-0.064 0.020-0.128 0.028-0.192 0.004-0.060 0.008-0.116 0.008-0.176 0-0.28-0.104-0.492-0.32-0.64-0.22-0.148-0.54-0.22-0.96-0.22-0.128 0-0.248 0.004-0.36 0.020v0.584c0.096-0.024 0.212-0.036 0.348-0.036 0.212 0 0.364 0.028 0.46 0.084s0.144 0.144 0.144 0.264c0 0.272-0.268 0.436-0.796 0.484-0.056 0.004-0.108 0.008-0.156 0.016v0.54c0.052-0.008 0.112-0.012 0.176-0.020 0.244-0.020 0.444-0.060 0.592-0.12-0.040 0.4-0.148 0.704-0.32 0.908l-0.001 0.002c-0.11 0.138-0.264 0.239-0.447 0.282v0.524zM14.436 15.056c-0.272 0.036-0.492 0.116-0.664 0.24-0.244 0.176-0.392 0.44-0.452 0.796h0.704c0.040-0.176 0.116-0.3 0.228-0.376l-0.003 0.002c0.056-0.034 0.117-0.060 0.187-0.078v-0.584zM14.436 16.452c-0.108 0.008-0.196 0.020-0.272 0.028-0.384 0.048-0.68 0.172-0.884 0.372-0.044 0.044-0.084 0.092-0.12 0.144v1.256l0.002 0.002c0.030 0.039 0.062 0.076 0.098 0.11 0.184 0.176 0.44 0.268 0.764 0.268h0c0.147-0 0.289-0.024 0.412-0.064v-0.524c-0.076 0.020-0.16 0.028-0.244 0.028-0.164 0-0.292-0.044-0.384-0.132-0.096-0.088-0.14-0.208-0.14-0.356 0-0.136 0.040-0.248 0.116-0.344 0.080-0.092 0.192-0.16 0.344-0.2 0.056-0.016 0.16-0.032 0.308-0.048v-0.54zM13.16 14.824l0.184-0.88h-0.184v0.88zM13.16 13.944h-0.624l-0.724 3.48-1.5-3.48h-0.824l-0.988 4.668h0.812l0.732-3.472 1.512 3.472h0.808l0.796-3.788v-0.88zM13.16 16.996v1.256c-0.124-0.164-0.184-0.368-0.184-0.612 0-0.252 0.060-0.468 0.184-0.644zM7.42 17.252l0.148-0.696-0.148 0.060v0.636zM7.42 15.72l0.112-0.008 0.22-0.044 0.204-0.996-0.16 0.068-0.196 0.064-0.18 0.032v0.884zM7.42 13.936c0.452 0.012 0.864-0.144 0.884-0.648 0.016-0.404-0.112-0.696-0.884-0.688v1.336zM7.42 12.6c-0.084 0.004-0.176 0.008-0.276 0.016l-0.26 1.232-0.017-0.004c0.175 0.050 0.358 0.082 0.553 0.092v-1.336zM7.42 14.836h0v0.884l-0.168 0.012-0.276-0.004-0.264-0.036-0.26-0.056-0.252-0.076-0.484-0.204-0.061-0.030c-0.227-0.123-0.449-0.253-0.619-0.362-0.364-0.236-0.716-0.484-1.076-0.724v-1.040c0.016 0.008 0.032 0.020 0.048 0.028 0.576 0.36 1.124 0.764 1.7 1.12l0.396 0.216-0.030-0.013c0.183 0.087 0.372 0.163 0.602 0.237l0.368 0.060 0.18 0.008 0.184-0.016 0.012-0.004zM7.42 16.616l-0.040 0.019-0.196 0.060-0.188 0.036-0.184 0.016-0.184-0.004-0.368-0.064c-0.2-0.060-0.38-0.132-0.572-0.22l-0.392-0.216c-0.456-0.28-0.892-0.588-1.336-0.884v1.052c0.22 0.152 0.44 0.304 0.664 0.448l-0.035-0.021c0.216 0.138 0.438 0.267 0.715 0.409l0.48 0.204 0.252 0.080 0.26 0.056 0.268 0.032 0.272 0.008 0.28-0.024 0.244-0.048 0.060-0.304v-0.636zM3.961 18.544v-1.060c0.308 0.208 0.612 0.416 0.932 0.612l0.392 0.22-0.037-0.015c0.184 0.084 0.374 0.158 0.609 0.235l0.368 0.064 0.184 0.004 0.184-0.016 0.188-0.036 0.196-0.064 0.188-0.080 0.020-0.012-0.208 1.012-0.264 0.052-0.28 0.024-0.272-0.008-0.268-0.032-0.26-0.060-0.252-0.076-0.484-0.204-0.075-0.037c-0.226-0.123-0.448-0.252-0.605-0.351-0.084-0.060-0.172-0.116-0.256-0.172zM3.961 13.2l0.050 0.027c-0.212-0.124-0.428-0.242-0.71-0.379l-0.508-0.192-0.268-0.068-0.276-0.048-0.28-0.024-0.292 0.008-0.296 0.032-0.056 0.012-0.2 0.964 0.188-0.060 0.216-0.048 0.208-0.024 0.204-0.004 0.2 0.016 0.2 0.036 0.031 0.007c0.205 0.055 0.405 0.125 0.569 0.197l0.408 0.208 0.057 0.031c0.204 0.12 0.403 0.246 0.555 0.349v-1.040zM3.961 15.36c-0.12-0.080-0.244-0.156-0.364-0.232l0.036 0.020c-0.226-0.137-0.459-0.264-0.748-0.4l-0.508-0.192-0.264-0.068-0.276-0.048-0.284-0.024-0.288 0.004-0.296 0.036-0.036 0.008-0.048 0.224v0.688l0.016-0.008 0.212-0.044 0.208-0.028h0.204l0.2 0.016 0.2 0.032 0.033 0.008c0.207 0.056 0.408 0.126 0.571 0.197l0.408 0.208 0.093 0.053c0.34 0.207 0.674 0.424 0.931 0.603v-1.052zM3.961 17.484v1.060c-0.476-0.32-0.94-0.648-1.428-0.936l-0.408-0.208c-0.204-0.084-0.392-0.148-0.604-0.204l-0.2-0.036-0.2-0.016-0.204 0.004-0.032 0.004v-0.88l0.264-0.004 0.284 0.020 0.272 0.048 0.268 0.072 0.508 0.188 0.070 0.032c0.238 0.119 0.471 0.245 0.642 0.348 0.26 0.164 0.512 0.336 0.768 0.508zM0.885 19.336c0.084 0 0.176-0.004 0.276-0.012l0.26-1.232c-0.172-0.048-0.356-0.084-0.536-0.088v1.332zM0.885 14.688l-0.152 0.736 0.152-0.048v-0.688zM0.885 16.272h-0.028l-0.296 0.032-0.012 0.004-0.2 0.96 0.144-0.048 0.216-0.048 0.176-0.020v-0.88zM0.885 18.004c-0.452-0.016-0.86 0.144-0.884 0.648v0.108c0.016 0.344 0.184 0.588 0.884 0.576v-1.332zM31.544 18.172h-0v-0.088h0.032l0.028-0.008 0.020-0.012 0.016-0.020 0.008-0.024v-0.024l-0.004-0.020-0.016-0.020-0.020-0.016-0.028-0.008h-0.036v-0.092h0.068l0.036 0.008 0.052 0.020 0.036 0.032 0.020 0.040 0.004 0.044-0.004 0.044-0.016 0.040-0.028 0.032-0.032 0.020-0.040 0.012h0.020l0.032 0.012 0.020 0.020 0.016 0.024 0.008 0.032 0.004 0.032 0.004 0.032 0.004 0.036 0.008 0.032 0.008 0.028 0.004 0.012h-0.116l-0.004-0.012-0.004-0.024-0.008-0.056v-0.028l-0.008-0.028-0.024-0.048-0.020-0.012-0.032-0.008-0.008-0.004zM31.544 18.584v0h0.004l0.040-0.004 0.036-0.008 0.036-0.008 0.036-0.012 0.032-0.016 0.036-0.016 0.032-0.020 0.028-0.024 0.056-0.048 0.024-0.032 0.020-0.028 0.020-0.032 0.016-0.032 0.012-0.036 0.012-0.036 0.008-0.036 0.004-0.040 0.004-0.036v-0.008l-0.008-0.072-0.008-0.040-0.008-0.036-0.016-0.032-0.012-0.036-0.020-0.032-0.020-0.032-0.024-0.028-0.056-0.052-0.028-0.024-0.032-0.020-0.032-0.016-0.032-0.016-0.036-0.012-0.036-0.012-0.036-0.004-0.040-0.008h-0.012v0.044l0.072 0.008 0.036 0.008 0.032 0.012 0.036 0.016 0.032 0.020 0.028 0.020 0.056 0.048 0.048 0.056 0.020 0.032 0.016 0.032 0.012 0.032 0.012 0.036 0.008 0.036 0.004 0.036v0.068l-0.004 0.036-0.008 0.036-0.012 0.032-0.012 0.036-0.016 0.032-0.016 0.032-0.048 0.056-0.052 0.052-0.032 0.020-0.032 0.016-0.032 0.020-0.032 0.012-0.036 0.008-0.036 0.004-0.040 0.004h-0.004v0.044zM31.319 18.392v-0.552h0.224v0.092h-0.108v0.152h0.108v0.088h-0.108v0.22h-0.116zM31.544 17.64h-0.025l-0.040 0.004-0.036 0.004-0.036 0.008-0.072 0.024-0.032 0.016-0.032 0.020-0.032 0.020-0.056 0.052-0.024 0.028-0.020 0.028-0.020 0.032-0.020 0.032-0.012 0.036-0.012 0.036-0.016 0.072-0.004 0.036v0.076l0.008 0.040 0.008 0.032 0.012 0.040 0.016 0.032 0.016 0.036 0.020 0.032 0.020 0.028 0.052 0.056 0.028 0.024 0.028 0.020 0.032 0.020 0.036 0.016 0.032 0.016 0.036 0.012 0.036 0.008 0.040 0.004 0.036 0.004h0.032v-0.044h-0.068l-0.032-0.008-0.040-0.008-0.032-0.012-0.036-0.012-0.028-0.020-0.032-0.020-0.056-0.048-0.048-0.056-0.020-0.032-0.016-0.032-0.012-0.032-0.012-0.036-0.008-0.036-0.004-0.036-0.004-0.036 0.008-0.072 0.008-0.036 0.008-0.036 0.016-0.032 0.016-0.036 0.016-0.028 0.024-0.032 0.024-0.028 0.052-0.048 0.032-0.020 0.032-0.020 0.032-0.012 0.036-0.012 0.036-0.012 0.072-0.008h0.036v-0.044z"></path>
</symbol>

<!-- Thrifly -->
<symbol id="icon-thrifty" viewBox="0 0 32 32">
<path d="M17.398 15.406h5.785l-3.461 5.031h-2.083l1.987-2.9-0.192-2.083-0.897 2.708h-2.067l0.929-2.756zM13.013 18.156l0.93-2.756h2.051l-0.929 2.756h-2.051zM11.704 15.4h2.051l-0.929 2.756h-2.051l0.929-2.756zM7.651 18.156l0.929-2.756h2.051l-0.929 2.756h-2.051zM6.341 15.4h2.051l-0.929 2.756h-2.051l0.929-2.756zM4.103 15.4h2.051l-0.93 2.756h-2.051l0.929-2.756zM0.001 18.156l0.93-2.756h2.051l-0.929 2.756h-2.051zM8.487 15.094h-4.278l1.218-3.621h2.051l-0.801 2.372c0.192-0.176 0.593-0.769 1.41-0.769s0.817 0.753 0.705 1.106l-0.304 0.913zM11.615 15.098h-2.932l0.593-1.795h1.682l-0.144 0.545c0.16-0.16 0.337-0.753 1.474-0.753l-0.673 2.003zM15.077 11.468l-0.545 1.634h-2.083l0.545-1.634h2.083zM13.856 15.099h-2.051l0.593-1.795h2.051l-0.593 1.795zM14.047 15.094l0.769-2.324c0.080-0.288 0.336-1.298 1.426-1.298h1.971l-0.561 1.634h-1.378l-0.064 0.192h1.234l-0.609 1.795h-2.788zM17.619 13.3h0.448l0.609-1.827h2.083l-0.625 1.827h0.865l0.176 1.794h-4.15l0.593-1.794zM24.641 13.304l-1.242 1.795h-2.163l1.226-1.795h2.179zM4.478 13.668h-0.913l-0.481 1.426h-2.051l0.477-1.426h-1.326l0.753-2.195h4.294l-0.753 2.195zM31.049 19.221l-0.307 0.919c-0.007 0.074-0.047 0.162 0.095 0.158l-0.060 0.18c-0.020 0.003-0.038 0.012-0.060 0.012-0.127 0.004-0.243-0.024-0.222-0.161h-0.006c-0.11 0.152-0.313 0.195-0.476 0.195-0.341 0-0.407-0.193-0.302-0.506 0.022-0.065 0.146-0.314 0.418-0.419 0.159-0.062 0.532-0.145 0.571-0.169 0.066-0.040 0.082-0.101 0.113-0.191 0.066-0.196 0-0.254-0.196-0.25-0.162 0.004-0.262 0.058-0.327 0.26h-0.25c0.107-0.357 0.311-0.468 0.655-0.468 0.507 0 0.369 0.401 0.356 0.441zM30.548 19.967l0.108-0.315c-0.15 0.055-0.281 0.076-0.431 0.138-0.131 0.053-0.227 0.124-0.266 0.242-0.058 0.174-0.021 0.286 0.176 0.286 0.092 0 0.319-0.071 0.413-0.351zM22.416 19.634c-0.022 0.047-0.038 0.096-0.060 0.143-0.079 0.19-0.128 0.308-0.292 0.47-0.176 0.168-0.375 0.285-0.597 0.285-0.711 0-0.504-0.693-0.318-1.249 0.176-0.525 0.441-1.165 1.096-1.163 0.399 0.001 0.578 0.329 0.427 0.746h-0.255c0.086-0.276 0.107-0.516-0.268-0.512-0.443 0.004-0.63 0.617-0.733 0.924-0.118 0.317-0.36 1.022 0.107 1.022 0.305 0 0.453-0.252 0.569-0.506 0.024-0.053 0.044-0.106 0.068-0.158h0.255zM24.352 18.885c0.187-0.11 0.319-0.13 0.47-0.121l-0.113 0.298c-0.27 0.006-0.466 0.055-0.571 0.369l-0.35 1.047h-0.243l0.561-1.679h0.234l0.012 0.086zM29.351 20.135c-0.020 0.059-0.066 0.133 0.069 0.134h0.163l-0.070 0.208h-0.267c-0.146 0.003-0.245-0.022-0.158-0.283l0.413-1.236h-0.237l0.069-0.208h0.237l0.157-0.469h0.24l-0.157 0.469h0.286l-0.070 0.208h-0.283l-0.394 1.177zM31.756 18.146h0.243l-0.779 2.33h-0.243l0.779-2.33zM27.225 19.637l-0.391-0c-0.072 0.233-0.261 0.68 0.080 0.68 0.234 0 0.371-0.217 0.421-0.413h0.228c-0.098 0.339-0.365 0.621-0.725 0.621-0.323 0-0.481-0.217-0.248-0.913 0.122-0.363 0.399-0.907 0.851-0.907 0.554 0 0.347 0.528 0.224 0.932h-0.44v0.001zM27.375 18.91c0.283 0 0.164 0.32 0.106 0.522l-0.255 0.002v-0.002h-0.323c0.078-0.205 0.19-0.522 0.473-0.522zM28.824 18.692c0.129 0.007 0.394 0.079 0.209 0.608l-0.394 1.178h-0.243l0.389-1.178c0.048-0.11 0.135-0.336-0.090-0.35-0.271 0.006-0.466 0.167-0.571 0.481l-0.35 1.047h-0.243l0.553-1.679h0.25l0.024 0.086c0.171-0.15 0.315-0.202 0.466-0.193z"></path>
<path d="M26.242 18.146h-0.594l-0.779 2.33h0.255l0.343-1.025h0.446c0.301 0 0.327 0.199 0.249 0.432-0.052 0.155-0.138 0.401-0.118 0.593h0.298c-0.061 0-0.028-0.155-0.023-0.199 0.034-0.174 0.068-0.347 0.124-0.519 0.045-0.14 0.037-0.36-0.125-0.417 0.211-0.043 0.377-0.256 0.476-0.53 0.175-0.486-0.161-0.662-0.553-0.665zM26.539 18.787c-0.121 0.41-0.469 0.426-0.589 0.429h-0.403l0.28-0.839h0.368c0.169 0 0.456 0.030 0.344 0.41zM23.705 19.221c0.013-0.040 0.152-0.441-0.356-0.441-0.345 0-0.548 0.111-0.655 0.468h0.25c0.064-0.202 0.165-0.257 0.327-0.26 0.197-0.004 0.262 0.054 0.196 0.25-0.030 0.090-0.047 0.15-0.113 0.191-0.039 0.025-0.411 0.107-0.57 0.169-0.272 0.106-0.397 0.354-0.418 0.419-0.105 0.314-0.039 0.506 0.303 0.506 0.163 0 0.367-0.043 0.476-0.195h0.006c-0.021 0.137 0.095 0.165 0.221 0.161 0.021-0 0.040-0.009 0.060-0.012l0.060-0.18c-0.142 0.004-0.102-0.084-0.095-0.158l0.307-0.919zM23.204 19.967c-0.093 0.28-0.32 0.351-0.413 0.351-0.197 0-0.235-0.112-0.176-0.286 0.039-0.118 0.135-0.189 0.267-0.242 0.15-0.062 0.281-0.084 0.431-0.138l-0.108 0.315zM17.178 19.893c-0 0-0 0-0.001 0-0.149 0-0.269 0.121-0.269 0.269s0.12 0.269 0.268 0.269h0c0 0 0 0 0.001 0 0.149 0 0.269-0.121 0.269-0.269s-0.12-0.269-0.268-0.269h-0zM17.178 20.399c-0.003 0-0.006 0-0.009 0-0.131 0-0.237-0.106-0.237-0.237s0.106-0.237 0.237-0.237c0.003 0 0.006 0 0.009 0h-0c0.13 0 0.236 0.106 0.236 0.236v0c0 0.132-0.105 0.238-0.236 0.238z"></path>
<path d="M17.316 20.091c0-0.025-0.011-0.052-0.034-0.065s-0.048-0.015-0.073-0.015h-0.131v0.301h0.037v-0.139h0.068l0.086 0.139h0.044l-0.091-0.139c0.053-0.001 0.095-0.023 0.095-0.082zM17.171 20.144h-0.057v-0.106h0.086c0.037 0 0.078 0.006 0.078 0.052 0 0.061-0.066 0.054-0.108 0.054z"></path>
</symbol>

<!-- Sixt -->
<symbol id="icon-sixt" viewBox="0 0 32 32">
<path d="M10.644 10.309c3.846 0.283 6.011-0.805 6.754-2.235h3.927c-1.181 3.414-4.863 5.554-10.68 5.261z"></path>
<path d="M24.16 13.337l-1.408 1.979 3.254 4.761v-6.739zM14.422 13.738l-0 6.097 3.072-4.562-1.441-1.887c1.204-0.332 2.297-0.846 3.249-1.592l0.928 1.176 1.761-2.661h10.009v3.020h-2.251v7.374h-7.758l-1.985-2.966-2.064 2.966h-7.297v-2.028c-0.524 1.434-2.18 2.307-5.463 2.307-4.87 0-5.106-1.721-5.181-3.693h3.851c0.012 0.588 0.112 1.015 0.348 1.295 0.248 0.28 0.584 0.427 1.081 0.427 0.782 0 1.627-0.221 1.627-1.074 0-0.191-0.062-0.353-0.161-0.485-0.509-0.677-4.796-1.177-6.001-2.428-0.484-0.5-0.633-1.25-0.633-1.854 0-2.325 1.801-3.369 5.392-3.369 3.814 0 4.717 1.335 4.767 3.527h-3.709c-0.025-0.588-0.201-1.048-0.46-1.261-0.25-0.206-0.466-0.302-0.847-0.294-0.795 0.016-1.217 0.353-1.217 0.898 0 0.162 0.050 0.368 0.161 0.485 0.584 0.662 4.733 1.133 5.926 2.398 0.189 0.2 0.382 0.462 0.519 0.825v-2.447c1.232 0.046 2.514 0.005 3.777-0.192zM1.872 22.775h-0.687l0.349-0.72zM0.357 23.429h0.51l0.165-0.338h0.991l0.16 0.338h0.555l-0.885-1.704h-0.592zM3.005 21.724h0.453v1.024l0.566-0.505h0.569l-0.583 0.507 0.658 0.677h-0.625l-0.585-0.645v0.645h-0.453zM4.78 22.244h0.29v-0.241l0.453-0.165v0.406h0.382v0.288h-0.382v0.37c0 0.165 0.021 0.253 0.203 0.253 0.043 0 0.109-0.005 0.179-0.014v0.288c-0.043 0.007-0.163 0.028-0.304 0.028-0.347 0-0.531-0.135-0.531-0.423v-0.503h-0.29zM6.342 22.244h0.453v1.185h-0.453zM6.816 22.055h-0.495v-0.33h0.495zM8.239 22.702c-0.005-0.194-0.132-0.257-0.293-0.257-0.21 0-0.272 0.134-0.293 0.257zM8.72 22.947c-0.002-0.463-0.201-0.748-0.779-0.748-0.406 0-0.762 0.198-0.762 0.656 0 0.467 0.359 0.618 0.769 0.618 0.328 0 0.652-0.031 0.746-0.406h-0.481c-0.024 0.080-0.059 0.16-0.257 0.16-0.191 0-0.3-0.097-0.309-0.281zM9.086 22.487c0-0.076-0.003-0.163-0.010-0.243h0.439c0.005 0.071 0.010 0.141 0.010 0.212h0.005c0.118-0.158 0.295-0.257 0.503-0.257 0.432 0 0.595 0.246 0.595 0.555v0.675h-0.453v-0.607c0-0.189-0.083-0.321-0.288-0.321-0.187 0-0.347 0.144-0.347 0.406v0.522h-0.453zM11.473 22.805c0-0.184 0.118-0.318 0.337-0.318 0.201 0 0.359 0.118 0.359 0.318 0 0.187-0.127 0.319-0.354 0.319-0.215 0-0.342-0.137-0.342-0.319zM12.169 23.263c0 0.316-0.125 0.403-0.377 0.403-0.064 0-0.123-0.005-0.172-0.028-0.047-0.021-0.080-0.061-0.094-0.132h-0.481c0.019 0.201 0.080 0.42 0.727 0.42 0.5 0 0.852-0.12 0.852-0.677v-0.816c0-0.068 0.005-0.142 0.010-0.189h-0.439c-0.007 0.052-0.010 0.116-0.010 0.189h-0.005c-0.118-0.151-0.297-0.234-0.534-0.234-0.387 0-0.654 0.232-0.654 0.607 0 0.34 0.265 0.606 0.645 0.606 0.201 0 0.422-0.070 0.528-0.241h0.005zM14.024 22.702c-0.005-0.194-0.132-0.257-0.293-0.257-0.21 0-0.272 0.134-0.293 0.257zM14.505 22.947c-0.002-0.463-0.201-0.748-0.779-0.748-0.406 0-0.762 0.198-0.762 0.656 0 0.467 0.359 0.618 0.77 0.618 0.328 0 0.651-0.031 0.746-0.406h-0.481c-0.024 0.080-0.059 0.16-0.257 0.16-0.191 0-0.3-0.097-0.309-0.281zM15.293 23.058c0 0.064 0.021 0.106 0.057 0.134s0.090 0.035 0.149 0.035c0.095 0 0.236-0.014 0.236-0.13 0-0.083-0.106-0.111-0.198-0.125l-0.314-0.049c-0.226-0.035-0.359-0.144-0.359-0.328 0-0.337 0.387-0.397 0.647-0.397 0.514 0 0.654 0.149 0.663 0.397h-0.453c-0.007-0.064-0.031-0.101-0.059-0.12-0.033-0.021-0.104-0.031-0.16-0.031-0.073 0-0.17 0.031-0.17 0.104 0 0.085 0.111 0.106 0.208 0.123l0.307 0.050c0.259 0.043 0.356 0.158 0.356 0.354 0 0.361-0.458 0.399-0.72 0.399-0.592 0-0.639-0.241-0.656-0.416zM16.998 22.702c0.021-0.123 0.083-0.257 0.293-0.257 0.161 0 0.288 0.064 0.293 0.257zM18.064 22.947c-0.002-0.463-0.201-0.748-0.779-0.748-0.406 0-0.762 0.198-0.762 0.656 0 0.467 0.359 0.618 0.769 0.618 0.328 0 0.652-0.031 0.746-0.406h-0.481c-0.024 0.080-0.059 0.16-0.257 0.16-0.191 0-0.3-0.097-0.309-0.281z"></path>
<path d="M18.425 23.429h0.453v-1.704h-0.453zM19.31 23.429h0.453v-1.704h-0.453z"></path>
<path d="M20.61 23.058c0 0.064 0.021 0.106 0.057 0.134s0.090 0.035 0.148 0.035c0.094 0 0.236-0.014 0.236-0.13 0-0.083-0.106-0.111-0.198-0.125l-0.314-0.049c-0.226-0.035-0.359-0.144-0.359-0.328 0-0.337 0.387-0.397 0.646-0.397 0.515 0 0.654 0.149 0.663 0.397h-0.453c-0.007-0.064-0.031-0.101-0.059-0.12-0.033-0.021-0.104-0.031-0.16-0.031-0.073 0-0.17 0.031-0.17 0.104 0 0.085 0.111 0.106 0.208 0.123l0.307 0.050c0.259 0.043 0.356 0.158 0.356 0.354 0 0.361-0.458 0.399-0.72 0.399-0.592 0-0.64-0.241-0.656-0.416zM23.357 22.985c-0.042 0.385-0.425 0.489-0.775 0.489s-0.766-0.161-0.766-0.633c0-0.474 0.386-0.642 0.797-0.642 0.324 0 0.687 0.099 0.73 0.465h-0.468c-0.025-0.146-0.115-0.205-0.262-0.205-0.203 0-0.316 0.158-0.316 0.375 0 0.208 0.093 0.38 0.316 0.38 0.149 0 0.256-0.076 0.262-0.229zM23.701 21.724h0.451v0.722c0.149-0.172 0.282-0.248 0.501-0.248 0.425 0 0.589 0.246 0.589 0.555v0.675h-0.453v-0.607c0-0.189-0.085-0.321-0.287-0.321-0.189 0-0.349 0.144-0.349 0.406v0.522h-0.451zM26.642 22.912c0 0.123-0.068 0.302-0.363 0.302-0.127 0-0.194-0.050-0.194-0.123 0-0.099 0.062-0.179 0.369-0.179zM26.151 22.593c0.003-0.083 0.056-0.149 0.223-0.149 0.18 0 0.268 0.047 0.268 0.236h-0.332c-0.442 0-0.707 0.127-0.707 0.408 0 0.248 0.197 0.385 0.535 0.385 0.2 0 0.403-0.057 0.513-0.236h0.006c0 0.064 0.003 0.151 0.008 0.191h0.439c-0.008-0.087-0.011-0.177-0.011-0.265v-0.453c0-0.401-0.262-0.512-0.727-0.512-0.31 0-0.656 0.085-0.682 0.394zM27.65 22.532h-0.273v-0.288h0.273c0-0.458 0.211-0.534 0.645-0.534 0.048 0 0.149 0.007 0.197 0.014v0.269c-0.034-0.005-0.076-0.009-0.121-0.009-0.175 0-0.259 0.040-0.259 0.26h0.355v0.288h-0.363v0.897h-0.454zM28.656 22.244h0.29v-0.241l0.454-0.165v0.406h0.383v0.288h-0.383v0.37c0 0.165 0.020 0.253 0.203 0.253 0.042 0 0.107-0.005 0.18-0.014v0.288c-0.042 0.007-0.163 0.028-0.307 0.028-0.346 0-0.53-0.135-0.53-0.423v-0.503h-0.29z"></path>
</symbol>

<!-- Rental -->
<symbol id="icon-general-rent" viewBox="0 0 32 32">
<path d="M25.36 14.488l0.641-1.905-1.354-1.144h1.727l0.623-1.99 0.641 1.99h1.959l-1.602 1.126 0.641 1.941-1.638-1.211-1.638 1.193zM15.994 14.488l0.641-1.905-1.354-1.144h1.728l0.623-1.99 0.641 1.99h1.691l-1.335 1.126 0.641 1.941-1.638-1.211-1.638 1.193zM11.312 14.488l0.641-1.905-1.354-1.144h1.727l0.623-1.99 0.641 1.99h1.691l-1.335 1.126 0.641 1.941-1.638-1.211-1.638 1.193z"></path>
<path d="M20.677 14.488l0.641-1.905-1.354-1.144h1.727l0.623-1.99 0.641 1.99h1.691l-1.335 1.126 0.641 1.941-1.638-1.211-1.638 1.193zM6.629 14.488l0.641-1.905-1.62-1.144h1.994l0.623-1.99 0.641 1.99h1.691l-1.335 1.126 0.641 1.941-1.638-1.211-1.638 1.193zM16.299 22.5v-1.934h1.1v0.426h-0.597v0.323h0.567v0.426h-0.567v0.334h0.597v0.426h-1.1zM19.209 21.749v-1.182h0.502v1.934h-0.502l-0.921-1.185h-0.005v1.185h-0.503v-1.934h0.503l0.921 1.182h0.005zM19.997 20.992v-0.426h1.333v0.426h-0.415v1.508h-0.503v-1.508h-0.415zM21.481 21.829v-0.385h0.733v0.385h-0.733zM24.686 21.829v-0.385h0.733v0.385h-0.733zM27.439 21.823h-0v0.603c-0.174 0.092-0.376 0.126-0.532 0.126h-0c-0.28-0.001-0.535-0.109-0.726-0.285-0.213-0.192-0.31-0.444-0.31-0.731v0c0-0.002 0-0.003 0-0.005 0-0.274 0.109-0.522 0.285-0.704 0.19-0.195 0.464-0.313 0.736-0.313 0.161 0 0.31 0.036 0.459 0.098v0.603c-0.103-0.139-0.269-0.213-0.441-0.213-0.308 0-0.515 0.236-0.515 0.536 0 0.305 0.21 0.525 0.523 0.525 0.164 0 0.328-0.080 0.523-0.241zM29.259 19.776v-6.481h1.567v6.481h-1.567zM15.151 17.132v0c-0-0.274-0.223-0.497-0.497-0.497-0 0-0 0-0 0v0c-0 0-0 0-0 0-0.275 0-0.497 0.223-0.497 0.497v2.644h-1.568v-4.629h1.567v0.392c0.214-0.196 0.623-0.463 1.122-0.463s1.442 0.249 1.442 1.211v3.49h-1.567l-0.001-2.644zM31.293 13.642h-0v-0.301h0.045c0.039 0 0.056 0.028 0.064 0.062h0.022v-0.085h-0.352v0.085h0.022c0.008-0.034 0.024-0.062 0.063-0.062h0.045v0.301c0 0.039 0.001 0.043-0.049 0.047v0.022h0.189v-0.022c-0.051-0.004-0.050-0.008-0.050-0.047zM31.563 13.428l0.136 0.284h0.013l0.143-0.286h0.002v0.216c0 0.039 0.002 0.043-0.049 0.047v0.022h0.189v-0.022c-0.050-0.004-0.049-0.008-0.049-0.047v-0.255c0-0.031 0.007-0.045 0.052-0.047v-0.022h-0.115l-0.147 0.281-0.138-0.281h-0.135v0.022c0.028 0 0.054 0.019 0.068 0.050v0.231c0 0.049-0.005 0.064-0.050 0.067v0.022h0.129v-0.022c-0.046-0.003-0.050-0.019-0.050-0.067v-0.193h0.002z"></path>
<path d="M9.99 18.396c0.728 0.426 1.813-0.203 2.096-0.508l0.116 1.46c-0.32 0.231-1.148 0.605-1.914 0.605-0.864 0-2.511-0.659-2.511-2.332 0-0.028 0.001-0.056 0.002-0.084-0.625 1.455-2.086 2.404-3.75 2.404-2.225 0-4.029-1.804-4.029-4.029s1.804-4.029 4.029-4.029h-0c0.002 0 0.004 0 0.005 0 0.554 0 1.081 0.112 1.534 0.305l-0.586 1.835c-0.287-0.145-0.61-0.226-0.953-0.226-1.168 0-2.115 0.947-2.115 2.115s0.947 2.115 2.115 2.115h-0c0 0 0 0 0 0 0.823 0 1.537-0.47 1.892-1.169h-1.465l-1.175-1.712 4.704 0.003c0.058 0.193 0.115 0.502 0.117 0.763 0.001 0.162-0.008 0.32-0.024 0.475 0.477-0.881 1.438-1.348 2.28-1.348 1.175 0 1.959 0.926 2.083 1.584l-2.452 1.772zM9.647 16.535c0.223-0.151 0.766-0.356 1.051 0.053l-1.309 0.95c-0.187-0.589 0.093-0.891 0.259-1.003zM27.372 15.146l0.004 0.227c-0.323-0.253-0.709-0.401-1.125-0.401-0.806 0-1.503 0.554-1.834 1.359v-1.185c-0.57 0-0.908 0.249-1.139 0.481v-0.481h-1.567v4.629h1.567v-2.19c0-0.774 0.584-0.847 1.011-0.854-0.049 0.197-0.077 0.424-0.077 0.657 0 0.001 0 0.001 0 0.002v-0c0 1.335 0.913 2.417 2.039 2.417 0.412 0 0.796-0.145 1.125-0.394v0.362h1.563v-4.629h-1.567zM26.606 18.332c-0.459 0-0.831-0.406-0.831-0.906s0.372-0.907 0.831-0.907 0.831 0.406 0.831 0.907c0 0.5-0.372 0.906-0.831 0.906zM19.106 18.396l2.452-1.772c-0.125-0.659-0.908-1.585-2.083-1.585s-2.582 0.908-2.582 2.582 1.647 2.332 2.511 2.332c0.765 0 1.593-0.374 1.914-0.605l-0.116-1.46c-0.283 0.305-1.368 0.934-2.096 0.508zM18.763 16.535c0.223-0.151 0.766-0.356 1.050 0.053l-1.309 0.95c-0.187-0.589 0.093-0.891 0.259-1.003zM15.556 21.708c0.274-0.049 0.423-0.279 0.423-0.546 0-0.413-0.29-0.595-0.672-0.595h-0.751v1.934h0.503v-0.744h0.005l0.474 0.744h0.626l-0.608-0.792zM15.107 21.433h-0.049v-0.482h0.049c0.164 0 0.349 0.031 0.349 0.241s-0.185 0.241-0.349 0.241zM23.724 20.566h-0.549l-0.744 1.934h0.533l0.133-0.336 0.692-0.003 0.001 0.003 0.126 0.336h0.536l-0.728-1.934zM23.237 21.779l0.207-0.615h0.005l0.205 0.615h-0.418zM30.449 21.708c0.274-0.049 0.423-0.279 0.423-0.546 0-0.413-0.29-0.595-0.672-0.595h-0.751v1.929l-0.727-1.929h-0.549l-0.744 1.934h0.533l0.133-0.336h0.692l0.126 0.336h1.037v-0.744h0.005l0.474 0.744h0.626l-0.607-0.792zM28.234 21.779l0.208-0.615h0.005l0.205 0.615h-0.418zM30 21.433h-0.049v-0.482h0.049c0.164 0 0.349 0.031 0.349 0.241s-0.185 0.241-0.349 0.241z"></path>
</symbol>

<!-- Automobile -->
<symbol id="icon-automobile" viewBox="0 0 36 32">
<path d="M8.571 19.429c0-1.571-1.286-2.857-2.857-2.857s-2.857 1.286-2.857 2.857 1.286 2.857 2.857 2.857 2.857-1.286 2.857-2.857zM9.214 13.714h18.143l-1.589-6.375c-0.054-0.196-0.411-0.482-0.625-0.482h-13.714c-0.214 0-0.571 0.286-0.625 0.482zM33.714 19.429c0-1.571-1.286-2.857-2.857-2.857s-2.857 1.286-2.857 2.857 1.286 2.857 2.857 2.857 2.857-1.286 2.857-2.857zM36.571 17.714v6.857c0 0.321-0.25 0.571-0.571 0.571h-1.714v2.286c0 1.893-1.536 3.429-3.429 3.429s-3.429-1.536-3.429-3.429v-2.286h-18.286v2.286c0 1.893-1.536 3.429-3.429 3.429s-3.429-1.536-3.429-3.429v-2.286h-1.714c-0.321 0-0.571-0.25-0.571-0.571v-6.857c0-2.214 1.786-4 4-4h0.5l1.875-7.482c0.554-2.25 2.732-3.946 5.054-3.946h13.714c2.321 0 4.5 1.696 5.054 3.946l1.875 7.482h0.5c2.214 0 4 1.786 4 4z"></path>
</symbol>

<!-- Fuel -->
<symbol id="icon-fuel" viewBox="0 0 32 32">
<path d="M29.553 10.254h-0.337v-4.55l-2.145-2.155-0.22 1.699 0.77 0.779v4.227h-0.337v4.65h0.418v8.017c0 0.937-0.762 1.699-1.699 1.699s-1.699-0.762-1.699-1.699v-8.125h-2.503v-0.739h1.267l2.399-14.058h-23.019l2.399 14.058h1.267v13.331h-2.562v4.611h20.811v-4.611h-2.562v-11.161h1.072v6.694c0 1.726 1.404 3.13 3.13 3.13s3.13-1.404 3.13-3.13v-8.017h0.421v-4.65zM20.049 10.48h-12.184l-1.178-6.903h14.541l-1.178 6.903z"></path>
</symbol>

<!-- Gear -->
<symbol id="icon-gear" viewBox="0 0 32 32">
<path d="M29.18 19.070c-1.679-2.908-0.669-6.634 2.255-8.327l-3.145-5.446c-0.898 0.527-1.943 0.829-3.058 0.829-3.36 0-6.084-2.742-6.084-6.125h-6.289c0.008 1.044-0.252 2.103-0.811 3.070-1.679 2.908-5.411 3.897-8.339 2.211l-3.144 5.446c0.905 0.515 1.689 1.268 2.246 2.234 1.676 2.903 0.672 6.622-2.241 8.319l3.144 5.446c0.895-0.522 1.935-0.82 3.044-0.82 3.35 0 6.067 2.725 6.084 6.092h6.289c-0.003-1.034 0.259-2.080 0.811-3.038 1.676-2.903 5.399-3.893 8.325-2.219l3.145-5.446c-0.899-0.515-1.678-1.265-2.232-2.226zM16 22.479c-3.578 0-6.479-2.901-6.479-6.479s2.901-6.479 6.479-6.479c3.578 0 6.479 2.901 6.479 6.479s-2.901 6.479-6.479 6.479z"></path>
</symbol>



<!-- Facebiij -->
<symbol id="icon-facebook" viewBox="0 0 32 32">
<path d="M18.665 10.657h1.461v-2.544c-0.252-0.035-1.119-0.113-2.128-0.113-2.106 0-3.549 1.325-3.549 3.759v2.241h-2.324v2.844h2.324v7.156h2.849v-7.155h2.23l0.354-2.844h-2.585v-1.959c0.001-0.822 0.222-1.385 1.367-1.385z"></path>
</symbol>

<!-- Twitter -->
<symbol id="icon-twitter" viewBox="0 0 32 32">
<path d="M13.213 22.007c5.661 0 8.756-4.69 8.756-8.756 0-0.133-0.003-0.266-0.009-0.398 0.601-0.434 1.123-0.977 1.535-1.594-0.551 0.245-1.145 0.41-1.767 0.485 0.635-0.381 1.123-0.984 1.353-1.702-0.595 0.353-1.253 0.609-1.954 0.747-0.562-0.598-1.361-0.972-2.247-0.972-1.699 0-3.078 1.378-3.078 3.077 0 0.242 0.027 0.476 0.080 0.702-2.558-0.129-4.826-1.353-6.344-3.215-0.264 0.455-0.417 0.983-0.417 1.547 0 1.068 0.543 2.010 1.369 2.562-0.505-0.016-0.979-0.154-1.394-0.385-0 0.013-0 0.026-0 0.039 0 1.49 1.061 2.735 2.469 3.017-0.259 0.070-0.531 0.108-0.812 0.108-0.198 0-0.391-0.019-0.578-0.055 0.392 1.223 1.528 2.113 2.875 2.138-1.053 0.826-2.38 1.317-3.822 1.317-0.248 0-0.493-0.014-0.734-0.043 1.362 0.873 2.979 1.382 4.717 1.382z"></path>
</symbol>

<!-- Google -->
<symbol id="icon-google-plus" viewBox="0 0 32 32">
<path d="M11.895 14.796v2.465h4.074c-0.163 1.058-1.23 3.1-4.074 3.1-2.451 0-4.453-2.033-4.453-4.537s2.002-4.537 4.453-4.537c1.398 0 2.328 0.595 2.861 1.107l1.949-1.878c-1.252-1.168-2.875-1.878-4.81-1.878-3.973 0.004-7.182 3.214-7.182 7.187s3.21 7.182 7.182 7.182c4.145 0 6.896-2.914 6.896-7.019 0-0.472-0.053-0.833-0.115-1.19h-6.781z"></path>
<path d="M27.287 14.589h-2.116v-2.116h-2.116v2.116h-2.116v2.116h2.116v2.116h2.116v-2.116h2.116z"></path>
</symbol>

<!-- Youtube -->
<symbol id="icon-youtube" viewBox="0 0 32 32">
<path d="M26.108 11.875c0 0-0.201-1.422-0.822-2.046-0.786-0.822-1.664-0.826-2.067-0.874-2.884-0.21-7.215-0.21-7.215-0.21h-0.008c0 0-4.331 0-7.215 0.21-0.403 0.048-1.281 0.052-2.067 0.874-0.62 0.624-0.818 2.046-0.818 2.046s-0.205 1.668-0.205 3.34v1.563c0 1.668 0.205 3.34 0.205 3.34s0.201 1.422 0.818 2.047c0.786 0.822 1.817 0.794 2.276 0.882 1.652 0.157 7.014 0.206 7.014 0.206s4.335-0.008 7.219-0.213c0.403-0.048 1.281-0.052 2.067-0.874 0.62-0.624 0.822-2.047 0.822-2.047s0.206-1.668 0.206-3.34v-1.563c-0.004-1.668-0.209-3.34-0.209-3.34zM13.869 18.675v-5.797l5.571 2.909-5.571 2.888z"></path>
</symbol>

<!-- Circle Right -->
<symbol id="icon-circle-right" viewBox="0 0 32 32">
<path d="M10.535 22.768l3.146 3.146 9.914-9.914-9.914-9.914-3.146 3.146 6.768 6.768z"></path>
</symbol>

<!-- Booking -->
<symbol id="icon-booking" viewBox="0 0 33 32">
<path fill="#0c0c0c" style="fill: var(--color1, #0c0c0c)" d="M32.72 6.144c0-3.391-2.754-6.144-6.145-6.144h-20.43c-3.391 0-6.145 2.753-6.145 6.144v19.712c0 3.39 2.754 6.144 6.145 6.144h20.43c3.391 0 6.145-2.754 6.145-6.144z"></path>
<path fill="#0c0c0c" style="fill: var(--color1, #0c0c0c)" d="M0.001 19.88h16.342v12.12h-16.342z"></path>
<path fill="#fff" style="fill: var(--color2, #fff)" d="M14.87 21.181l-2.635-0.003v-3.151c0-0.673 0.261-1.024 0.837-1.104h1.798c1.282 0 2.112 0.808 2.112 2.117 0 1.344-0.808 2.139-2.112 2.141zM12.235 12.682v-0.829c0-0.726 0.307-1.071 0.98-1.116h1.349c1.156 0 1.849 0.692 1.849 1.851 0 0.882-0.475 1.912-1.807 1.912h-2.372zM18.236 15.826l-0.476-0.268 0.416-0.356c0.484-0.416 1.295-1.352 1.295-2.966 0-2.473-1.917-4.067-4.885-4.067l-3.772-0.001c-0.879 0.033-1.584 0.748-1.593 1.633v14.030h5.432c3.298 0 5.427-1.795 5.427-4.576 0-1.497-0.688-2.777-1.844-3.428z"></path>
<path fill="#00bafc" style="fill: var(--color3, #00bafc)" d="M21.494 21.893c0-1.072 0.864-1.939 1.929-1.939 1.068 0 1.936 0.867 1.936 1.939 0 1.070-0.868 1.939-1.936 1.939-1.065 0-1.929-0.868-1.929-1.939z"></path>
</symbol>

<!-- Price tags -->
<symbol id="icon-price-tags" viewBox="0 0 40 32">
<path d="M38.5 0h-12c-0.825 0-1.977 0.477-2.561 1.061l-14.879 14.879c-0.583 0.583-0.583 1.538 0 2.121l12.879 12.879c0.583 0.583 1.538 0.583 2.121 0l14.879-14.879c0.583-0.583 1.061-1.736 1.061-2.561v-12c0-0.825-0.675-1.5-1.5-1.5zM31 12c-1.657 0-3-1.343-3-3s1.343-3 3-3 3 1.343 3 3-1.343 3-3 3z"></path>
<path d="M4 17l17-17h-2.5c-0.825 0-1.977 0.477-2.561 1.061l-14.879 14.879c-0.583 0.583-0.583 1.538 0 2.121l12.879 12.879c0.583 0.583 1.538 0.583 2.121 0l0.939-0.939-13-13z"></path>
</symbol>

<!-- Ferrari -->
<symbol id="icon-ferrari" viewBox="0 0 32 32">
<path d="M27.347 13.031c-0.128 0.173-0.185 0.516-0.371 0.803-0.259 0.4-0.631 0.887-0.817 0.887-0.1 0-0.128-0.228-0.128-0.228s-0.129-0.387 0.085-0.873c0.157-0.344 0.244-0.444 0.444-0.703 0.187-0.243 0.301-0.372 0.429-0.629 0.115-0.229 0.144-0.272 0.215-0.631 0.015-0.085-0.013-0.272-0.1-0.257-0.115 0-0.429 0.687-0.759 1.073-0.315 0.359-0.903 0.817-0.903 0.817s-0.057 0.043-0.057-0.072c-0.013-0.1-0.028-0.4 0.029-0.673 0.057-0.272 0.143-0.544 0.387-0.96 0.272-0.472 0.616-0.8 0.787-0.973 0.072-0.071 0.287-0.2 0.173-0.272-0.101-0.057-0.401 0.2-0.631 0.373-0.287 0.213-0.387 0.272-0.673 0.615-0.129 0.144-0.247 0.303-0.349 0.473l-0.008 0.014s-0.272 0.444-0.344 0.875c-0.072 0.429-0.072 0.672-0.072 0.672s0 0.387 0.043 0.616c0.029 0.244 0.129 0.616 0.129 0.616s0.144 0.415 0.2 0.673c0.057 0.257 0.159 1.016 0.159 1.016s0.071 0.544 0.028 1.060c-0.043 0.515-0.085 0.816-0.143 0.973s-0.215 0.573-0.473 0.859c-0.243 0.272-0.3 0.316-0.3 0.316s-0.259 0.213-0.473 0.329c-0.186 0.103-0.408 0.204-0.638 0.289l-0.034 0.011c-0.102 0.019-0.225 0.035-0.35 0.042l-0.009 0h-0.187l-0.056-0.043-0.029-0.115s-0.143-0.559-0.315-0.916c-0.144-0.301-0.444-0.716-0.444-0.716s-0.516-0.701-0.916-1.088c-0.459-0.459-0.973-0.803-1.289-1.045-0.098-0.070-0.22-0.151-0.344-0.227l-0.029-0.017s-1.044-1.045-1.416-1.876c-0.259-0.573-0.429-0.987-0.359-1.617 0.015-0.143 0.072-0.416 0.1-0.416l0.187 0.057c0.013 0.015 0.187 0.173 0.344 0.229 0.128 0.040 0.279 0.070 0.434 0.086l0.010 0.001c0.071 0.028 0.2 0.071 0.285 0.115 0.087 0.043 0.216 0.128 0.216 0.128l0.243 0.187 0.257 0.2s0.144 0.1 0.187 0.115c0.043 0.013 0.072 0.029 0.085 0.029h0.057s0.057-0.015 0.072-0.072c0.013-0.072-0.072-0.013-0.2-0.157-0.079-0.069-0.146-0.149-0.198-0.239l-0.002-0.005s-0.029-0.115-0.144-0.243c-0.115-0.129-0.257-0.244-0.257-0.244s-0.1-0.072-0.244-0.115c-0.143-0.043-0.187-0.043-0.2-0.1s0.172-0.028 0.172-0.028 0.213 0.028 0.387 0.113c0.172 0.087 0.272 0.187 0.272 0.187l0.115 0.1 0.071 0.072 0.072 0.043s0.072 0.072 0.085-0.028c0.015-0.087-0.013-0.157-0.028-0.173l-0.072-0.071-0.287-0.243c-0.085-0.087-0.143-0.144-0.228-0.2-0.108-0.077-0.231-0.145-0.362-0.197l-0.012-0.004c-0.143-0.057-0.228-0.043-0.372-0.115-0.1-0.043-0.187-0.072-0.243-0.157-0.015-0.013-0.087-0.072 0.043-0.043 0.129 0.028 0.215 0.071 0.357 0.1 0.229 0.057 0.373 0.057 0.587 0.128 0.087 0.029 0.201 0.087 0.201 0.087l0.272 0.115s0.373 0.2 0.631 0.213c0.029 0.002 0.062 0.004 0.095 0.004 0.166 0 0.325-0.033 0.47-0.092l-0.008 0.003c0.11-0.045 0.204-0.102 0.288-0.172l-0.002 0.001c0.026-0.026 0.050-0.054 0.071-0.085l0.001-0.002 0.028-0.072v-0.057c-0.071-0.085-0.213 0.144-0.444 0.187-0.243 0.043-0.228 0.072-0.387 0.043-0.159-0.017-0.298-0.091-0.4-0.2l-0-0c-0.229-0.215-0.315-0.416-0.616-0.544-0.096-0.040-0.215-0.079-0.338-0.11l-0.020-0.004s-0.316-0.1-0.488-0.2c-0.128-0.072-0.4-0.115-0.315-0.229 0.043-0.057 0.387 0.143 0.644 0.172 0.187 0.028 0.316 0.013 0.459 0.013s0.344-0.043 0.373-0.043c0.027-0.013 0.143 0 0.243 0.029 0.1 0.028 0.157 0.071 0.257 0.115 0.1 0.043 0.215 0.113 0.244 0.113l0.057 0.015 0.028-0.028 0.013-0.029-0.013-0.028-0.043-0.029-0.087-0.057s-0.128-0.071-0.243-0.187c-0.115-0.113-0.215-0.243-0.387-0.3s-0.373-0.085-0.373-0.085l-0.2-0.015-0.085-0.013s-0.143-0.044-0.029-0.072c0.056-0.018 0.124-0.034 0.193-0.043l0.007-0.001c0.041-0.009 0.089-0.014 0.137-0.014 0.069 0 0.136 0.011 0.198 0.030l-0.005-0.001c0.115 0.043 0.3 0.143 0.315 0.143 0.013 0.015 0.187 0.144 0.373 0.187 0.185 0.043 0.428 0.057 0.428 0.057l0.115-0.028 0.057-0.015 0.044-0.029-0.015-0.071s0-0.057-0.087-0.072c-0.157-0.020-0.297-0.076-0.418-0.159l0.003 0.002c-0.157-0.115-0.272-0.229-0.272-0.229s-0.115-0.1-0.344-0.157c-0.213-0.057-0.287-0.057-0.287-0.057l-0.071-0.029-0.157-0.071s-0.072-0.043-0.129-0.115c-0.057-0.072-0.143-0.2 0.1-0.129 0.114 0.026 0.215 0.066 0.307 0.118l-0.006-0.003s0.128 0.129 0.243 0.143c0.072 0.015 0.129 0.029 0.173-0.028 0.071-0.072-0.131-0.157-0.273-0.257-0.115-0.072-0.229-0.259-0.229-0.259s-0.085-0.071 0.043-0.043c0.129 0.029 0.359 0.173 0.359 0.173s0.115 0.056 0.172 0.071c0.043 0.013 0.157 0.085 0.213 0.115 0.044 0.013 0.173 0.043 0.259 0.085 0.115 0.072 0.172 0.187 0.229 0.229s0.1 0.115 0.172 0.129c0.072 0.013 0.085 0.043 0.128 0.013 0.044-0.028 0.057-0.043 0.057-0.043s0.015-0.028-0.057-0.072c-0.060-0.045-0.112-0.097-0.156-0.155l-0.001-0.002-0.028-0.057-0.013-0.057-0.073-0.115-0.128-0.187s-0.2-0.271-0.387-0.371c-0.172-0.101-0.301-0.159-0.301-0.159s-0.085-0.043-0.128-0.071c-0.072-0.057-0.101-0.1-0.157-0.173-0.072-0.085-0.101-0.141-0.187-0.227-0.157-0.159-0.644-0.244-0.459-0.36 0.1-0.056 0.229-0.027 0.287-0.013s0.187 0.072 0.315 0.115c0.087 0.028 0.144 0.028 0.229 0.057 0.087 0.028 0.187 0.043 0.229 0.071 0.043 0.029 0.085 0.087 0.115 0.101 0.013 0.013 0.129 0.2 0.329 0.3s0.3 0.172 0.501 0.187c0.157 0.013 0.415-0.043 0.415-0.043s0.072-0.029 0.013-0.101c-0.071-0.071-0.071-0.085-0.128-0.1-0.229-0.085-0.415-0.057-0.587-0.229-0.072-0.071-0.1-0.085-0.157-0.2s-0.029-0.143-0.072-0.215c-0.028-0.072-0.1-0.172-0.1-0.172s-0.215-0.257-0.444-0.387c-0.169-0.087-0.315-0.182-0.449-0.29l0.005 0.004c-0.043-0.028-0.129-0.143-0.129-0.143l-0.071-0.115-0.043-0.085c-0.029-0.159 0.257 0.043 0.415 0.1 0.257 0.085 0.387 0.2 0.644 0.287 0.144 0.043 0.229 0.043 0.373 0.1 0.243 0.1 0.315 0.343 0.573 0.372 0.141 0.013 0.428 0.072 0.371-0.057-0.057-0.143-0.343-0.143-0.487-0.315-0.072-0.072-0.072-0.144-0.143-0.215-0.115-0.144-0.387-0.272-0.387-0.272s-0.087-0.072-0.187-0.272c-0.085-0.2-0.3-0.344-0.687-0.531-0.259-0.128-0.773-0.157-0.573-0.287 0.115-0.085 0.215-0.071 0.373-0.028 0.156 0.057 0.213 0.129 0.343 0.187s0.187 0.071 0.215 0.085c0.029 0.013 0.129 0.057 0.173 0.057 0.027 0.013 0.243 0.043 0.3 0.057l0.285 0.072 0.229 0.085s0.115 0.043 0.187 0.043c0.071 0 0.187-0.028 0.187-0.028l0.085-0.057 0.013-0.029s0.044-0.071-0.071-0.085c-0.1-0.013-0.157-0.013-0.172-0.013l-0.1-0.029-0.043-0.015s-0.2-0.157-0.373-0.229c-0.187-0.072-0.213-0.085-0.213-0.085l-0.072-0.015-0.087-0.013s-0.072 0-0.187-0.101c-0.113-0.1-0.157-0.157-0.257-0.257l-0.128-0.129s-0.115-0.085-0.115-0.157c0.013-0.115 0.257 0.129 0.257 0.129l0.172 0.115s0.143 0.1 0.4 0.113c0.259 0.015 0.573-0.071 0.573-0.071s0.043-0.029 0.187 0.013c0.098 0.032 0.183 0.076 0.26 0.131l-0.003-0.002 0.115 0.1 0.172 0.187 0.028-0.013c0.015-0.016 0.087-0.087-0.043-0.244-0.129-0.159-0.344-0.301-0.344-0.301s-0.285-0.172-0.573-0.229c-0.285-0.057-0.413-0.057-0.413-0.057s-0.216 0-0.344-0.143c-0.129-0.143-0.215-0.287-0.215-0.287l-0.044-0.2s-0.071-0.087-0.213-0.144c-0.129-0.057-0.273-0.143-0.273-0.143s-0.213-0.072-0.229-0.172c-0.043-0.187 0.359 0 0.573 0.043 0.2 0.044 0.287 0.115 0.487 0.157 0.103 0.031 0.221 0.049 0.344 0.049 0.040 0 0.080-0.002 0.12-0.006l-0.005 0c0.1 0 0.157-0.015 0.257-0.029 0.1 0 0.172-0.013 0.272 0 0.143 0.029 0.2 0.1 0.344 0.157 0.085 0.044 0.128 0.087 0.229 0.101 0.085 0.013 0.257 0.071 0.228-0.015l-0.043-0.057c-0.071-0.1-0.157-0.1-0.243-0.173-0.187-0.141-0.272-0.256-0.487-0.357-0.112-0.060-0.242-0.105-0.38-0.127l-0.007-0.001c-0.115-0.013-0.2 0.013-0.316-0.013-0.128-0.044-0.172-0.101-0.3-0.173-0.2-0.115-0.315-0.213-0.531-0.3-0.143-0.057-0.387-0.115-0.387-0.115l-0.1-0.015-0.043-0.013c-0.2-0.072 0.359-0.231 0.616-0.301 0.129-0.029 0.187-0.057 0.315-0.043 0.115 0.013 0.244 0.171 0.373 0.1 0.185-0.1-0.216-0.373-0.344-0.416-0.173-0.071-0.473-0.013-0.473-0.013l-0.659-0.015-0.187-0.029s-0.113 0-0.2-0.1c-0.085-0.1-0.415-0.501-0.787-0.559-0.387-0.057-0.501 0-0.531-0.028-0.329-0.516-0.672-0.631-0.931-0.873-0.071-0.072-0.187-0.229-0.213-0.215-0.029 0.013-0.073 0.229-0.144 0.415-0.087 0.215-0.029 0.315 0.013 0.4 0.057 0.087 0.129 0.144-0.013 0.231-0.144 0.085-0.329 0.057-0.329 0.057s-0.157-0.029-0.287-0.101c-0.129-0.057-0.4-0.171-0.4-0.171s-0.26-0.072-0.432-0.059c-0.172 0.013-0.187 0.028-0.315 0.043-0.072 0-0.1 0-0.172 0.013-0.057 0.015-0.129-0.027-0.129 0.044s0.144 0.071 0.244 0.115c0.1 0.043 0.329 0.043 0.287 0.1-0.057 0.057-0.272 0.072-0.287 0.057-0.013 0-0.157-0.029-0.272-0.029-0.187 0.015-0.2 0.015-0.473 0.144-0.043 0.013-0.028 0.115 0.057 0.085 0.12-0.036 0.258-0.056 0.401-0.057h0c0.172 0 0.272 0.057 0.444 0.1 0.143 0.044 0.157 0.072 0.373 0.101 0.041 0 0.128-0.029 0.128 0.028 0 0.029-0.057 0.072-0.057 0.072s-0.129 0.028-0.115 0.071c0.028 0.057 0.143 0 0.2 0s0.144 0.015 0.129 0.072l-0.028 0.043c-0.154 0.040-0.282 0.085-0.407 0.137l0.020-0.008c-0.359 0.143-0.501 0.315-0.845 0.487-0.329 0.157-0.859 0.359-0.859 0.359s-0.159 0.085-0.387 0.143c-0.229 0.057-0.244 0.043-0.401 0.072-0.133 0.008-0.256 0.050-0.36 0.116l0.003-0.002c-0.078 0.041-0.144 0.094-0.199 0.157l-0.001 0.001-0.201 0.3-0.115 0.173c-0.029 0.056-0.057 0.085-0.072 0.143-0.028 0.071-0.043 0.1-0.057 0.171-0.043 0.173 0 0.272 0.029 0.444 0.013 0.044 0.013 0.072 0.028 0.115 0.013 0.043 0.072 0.087 0.072 0.087l0.057 0.013s0.2-0.013 0.329-0.043c0.129-0.028 0.315-0.072 0.315-0.072l0.244-0.071 0.157-0.057s0.1 0 0.115 0.057c0.013 0.043-0.029 0.115-0.029 0.115s-0.085 0.043-0.157 0.071c-0.072 0.029-0.243 0.072-0.257 0.087l-0.187 0.057-0.157 0.013s-0.028 0.015-0.057 0.057c-0.028 0.044-0.028 0.044-0.028 0.072 0.028 0.029 0.043 0.057 0.071 0.087 0.057 0.043 0.087 0.071 0.157 0.085 0.101 0.043 0.159 0.029 0.259 0.029 0 0 0.001 0 0.001 0 0.13 0 0.253-0.032 0.361-0.089l-0.004 0.002c0.115-0.072 0.157-0.072 0.315-0.129 0.046-0.014 0.101-0.024 0.156-0.028l0.002-0c0.272-0.029 0.429 0.013 0.701 0.057 0.272 0.043 0.4 0.129 0.673 0.172 0.285 0.043 0.457 0.128 0.759 0.057 0.143-0.029 0.229-0.1 0.3 0.043 0.072 0.129 0.057 0.2 0.057 0.2s0 0.087-0.1 0.359c-0.1 0.272-0.415 0.945-0.415 0.945l-0.215 0.429s-0.173 0.343-0.573 0.787c-0.4 0.444-0.429 0.473-0.429 0.473s-0.215 0.157-0.429 0.429c-0.215 0.272-0.215 0.373-0.416 0.573-0.104 0.113-0.222 0.212-0.35 0.296l-0.007 0.004c-0.157 0.1-0.344 0.072-0.845 0.415-0.429 0.301-0.659 0.545-0.687 0.531-0.029-0.013-0.173-0.129-0.229-0.157l-0.873-0.587-0.344-0.229-0.157-0.101-0.029-0.057-0.085-0.115s-0.129-0.157-0.287-0.285c-0.157-0.153-0.356-0.264-0.578-0.314l-0.008-0.002c-0.244-0.071-0.4-0.113-0.644-0.028-0.142 0.047-0.262 0.126-0.358 0.229l-0 0.001c-0.143 0.143-0.172 0.257-0.287 0.429s-0.228 0.329-0.285 0.415c-0.050 0.081-0.108 0.185-0.162 0.29l-0.012 0.026s-0.285 0.457-0.443 0.759c-0.187 0.329-0.259 0.529-0.429 0.844-0.272 0.501-0.659 1.017-0.76 1.247-0.062 0.151-0.1 0.236-0.14 0.32l0.026-0.063s-0.029 0.129-0.044 0.215c-0.013 0.087-0.013 0.229-0.028 0.287-0.013 0.060-0.038 0.113-0.073 0.158l0.001-0.001c-0.013 0.013-0.172 0.344-0.229 0.559s-0.187 0.888-0.028 0.973c0.157 0.087 1.317-0.415 1.475-0.901 0.1-0.316-0.315-0.473-0.2-0.76 0.043-0.1 0.071-0.115 0.143-0.213 0.115-0.187 0.072-0.573 0.287-0.932 0.157-0.257 0.472-0.587 0.901-1.073 0.193-0.23 0.369-0.488 0.518-0.762l0.012-0.025s0.057-0.173 0.172-0.144c0.128 0.028 0.243 0.013 0.243 0.013l0.057 0.044 0.115 0.115 0.172 0.257s0.287 0.415 0.387 0.529c0.1 0.115 0.2 0.2 0.344 0.316 0.157 0.143 0.213 0.213 0.415 0.372 0.287 0.229 0.187 0.315-0.187 0.115-0.139-0.073-0.3-0.137-0.469-0.183l-0.017-0.004c-0.172-0.043-0.816-0.215-1.145-0.257-0.315-0.043-0.373-0.029-0.373-0.029s-0.156-0.013-0.343 0.1c-0.187 0.115-0.287 0.2-0.287 0.2s-0.213 0.244-0.228 0.288c-0.015 0.043-0.115 0.213-0.115 0.213s-0.057 0.087-0.072 0.187c-0.029 0.1-0.013 0.2-0.013 0.2l0.013 0.216 0.013 0.2s0.044 0.501 0.144 1.003c0.029 0.143 0.057 0.373 0.057 0.373l0.072 0.515s0.043 0.544 0.085 0.729c0.043 0.173 0.072 0.187 0.1 0.301 0.057 0.215-0.043 0.315 0.057 0.573 0.1 0.257 0.187 0.228 0.287 0.387 0.072 0.113 0.1 0.143 0.157 0.285 0.057 0.144 0.244 0.616 0.459 0.96 0.229 0.357 0.529 0.801 0.731 0.759 0.2-0.043 0.343-0.359 0.343-0.359s0.229-0.615 0.087-1.216c-0.144-0.616-0.803-0.329-0.888-0.773-0.013-0.101 0-0.259 0-0.259s-0.013-0.187-0.043-0.243c-0.029-0.057-0.259-0.487-0.344-0.845-0.072-0.272-0.057-1.145-0.115-1.389-0.157-0.629-0.172-0.573-0.085-0.687 0.1-0.115 0.187-0.085 0.187-0.085l0.128 0.013 0.1 0.044 0.187 0.113 0.257 0.2 0.487 0.316s0.272 0.157 0.387 0.215c0.115 0.057 0.215 0.129 0.215 0.129l0.129 0.085 0.213 0.157 0.044 0.044 0.029 0.057s0.1 0.228 0.529 0.472c0.344 0.2 0.644 0.143 0.773 0.3 0.028 0.029 0.272 0.359 0.387 0.56 0.143 0.228 0.315 0.5 0.372 0.587 0.057 0.085 0.415 0.529 0.415 0.529l0.473 0.516 0.616 0.573 0.557 0.471 0.359 0.287s0.315 0.301 0.673 0.544c0.343 0.229 0.357 0.259 0.587 0.416 0.172 0.115 0.4 0.272 0.629 0.444 0.229 0.187 0.488 0.529 0.387 0.644-0.071 0.043-0.2-0.143-0.444-0.359-0.2-0.171-0.3-0.257-0.5-0.4-0.259-0.2-0.387-0.301-0.673-0.473-0.144-0.085-0.4-0.243-0.416-0.213-0.1 0.3-0.085 0.587-0.071 0.959 0.013 0.257 0.057 0.515 0.143 0.844 0.072 0.316 0.144 0.488 0.257 0.788 0.115 0.301 0.329 0.773 0.329 0.773l0.329 0.659 0.301 0.501 0.157 0.257 0.057 0.087s0.072 0.171 0 0.285-0.157 0.359-0.287 0.373c-0.128 0.028-0.429 0.043-0.429 0.043l-1.704-0.029-0.888-0.071s-0.1-0.057-0.615-0.057c-0.301 0-0.545 0.128-0.716 0.143-0.144 0.013-0.845-0.043-1.317 0.143-0.444 0.187-0.645 0.229-0.803 0.516-0.115 0.215 0.559 0.559 1.117 0.688 0.901 0.2 0.644-0.187 0.987-0.431 0.044-0.028 0.059-0.057 0.101-0.071 0.229-0.072 0.359 0.115 0.587 0.115 0.259 0 0.401-0.087 0.659-0.129 1.304-0.172 3.337 0.444 3.337 0.444s0.5 0.157 0.729 0.115c0.272-0.057 0.215-0.157 0.301-0.315 0.071-0.129 0.043-0.159 0.057-0.301 0-0.085-0.015-0.129-0.029-0.215-0.057-0.244-0.213-0.587-0.213-0.587s-0.116-0.259-0.159-0.387c-0.057-0.187-0.115-0.301-0.143-0.501-0.087-0.531-0.072-0.487-0.072-0.787 0-0.545 0.057-0.845 0.2-1.376 0.215-0.773 0.616-1.103 0.917-1.847 0.085-0.2 0.085-0.487 0.187-0.516 0.113-0.013 0.099 0.359 0.041 0.573-0.187 0.744-0.644 1.059-0.859 1.819-0.157 0.587-0.244 0.931-0.2 1.532 0.013 0.329 0.143 0.844 0.143 0.844s0.172 0.573 0.257 0.788c0.087 0.215 0.259 0.573 0.259 0.573l0.387 0.687 0.2 0.329s0.143 0.129 0.072 0.344c-0.072 0.213-0.215 0.344-0.387 0.529-0.487 0.573-1.619 1.417-1.905 1.619-0.4 0.3-0.387 0.387-0.415 0.472-0.157 0.459-0.616 0.472-1.117 1.017-0.115 0.113-0.415 0.429-0.357 0.701 0.028 0.1 1.26 0.315 1.976 0.013 0.559-0.243 0.072-0.515 0.229-0.787 0.115-0.2 0.4-0.2 0.529-0.373 0.215-0.285 0.072-0.271 0.257-0.5 0.616-0.745 1.017-1.173 2.12-1.848 0.1-0.057 0.287-0.143 0.287-0.143s0.157-0.072 0.213-0.157c0.072-0.115 0.059-0.215 0.059-0.344 0-0.085-0.015-0.129-0.015-0.215 0-0.1 0.013-0.157-0.013-0.257-0.029-0.157-0.131-0.287-0.187-0.373-0.107-0.13-0.183-0.29-0.215-0.466l-0.001-0.006c-0.031-0.101-0.049-0.218-0.049-0.339 0-0.167 0.034-0.326 0.096-0.471l-0.003 0.008c0.115-0.301 0.372-0.544 0.372-0.544l0.644-0.431s0.559-0.4 0.731-0.557c0.187-0.157 0.544-0.487 0.801-0.86 0.301-0.415 0.459-0.672 0.587-1.173 0.044-0.187 0.087-0.473 0.087-0.473s0-0.2 0.115-0.213c0.115-0.016 0.143 0.027 0.143 0.027s0.1 0.059 0.129 0.344c0.013 0.287-0.072 0.616-0.072 0.616s-0.085 0.329-0.115 0.531c-0.013 0.128-0.013 0.2-0.013 0.343 0 0.244 0.1 0.444 0.1 0.444s0.057 0.043 0.057-0.057c0-0.115 0.028-0.287 0.071-0.457 0.044-0.144 0.072-0.115 0.157-0.359 0.115-0.315 0.015-0.287 0.072-0.472 0.029-0.087 0.1-0.173 0.187-0.173 0.085 0 0.1 0.116 0.1 0.116s0.085 0.372 0.013 0.716c-0.071 0.343-0.328 0.816-0.328 0.816l-0.2 0.344s-0.144 0.243-0.201 0.4c-0.036 0.079-0.056 0.17-0.056 0.267 0 0.048 0.005 0.094 0.015 0.139l-0.001-0.004c0.043 0.172 0.172 0.4 0.243 0.357 0.057-0.043-0.085-0.187 0.087-0.529 0.172-0.344 0.4-0.559 0.4-0.559s0.316-0.372 0.459-0.659c0.129-0.257 0.257-0.672 0.257-0.672s0.101-0.373 0.072-0.688c-0.013-0.3-0.072-0.459-0.072-0.459l-0.128-0.228-0.072-0.173 0.029-0.099c0.028-0.015 0.128 0.057 0.213 0.171 0.102 0.129 0.177 0.283 0.215 0.451l0.001 0.008c0.043 0.143 0.057 0.272 0.057 0.4 0 0.116-0.044 0.588 0.128 0.889 0.072 0.143 0.244 0.472 0.259 0.329 0.028-0.329-0.115-0.488-0.101-0.788 0.015-0.344 0.101-0.257 0.129-0.429 0.029-0.187 0.072-0.229 0.043-0.473-0.028-0.228-0.128-0.529-0.128-0.529l-0.1-0.229-0.044-0.085s0.029-0.043 0.072-0.043l0.344-0.115s0.444-0.2 0.616-0.344c0.187-0.129 0.4-0.359 0.4-0.359s0.287-0.357 0.429-0.615c0.344-0.645 0.344-1.461 0.329-1.833-0.021-0.309-0.062-0.593-0.122-0.871l0.007 0.040s-0.113-0.573-0.085-0.945c0.029-0.372 0.057-0.544 0.057-0.544s-0.013-0.372 0.301-0.773c0.315-0.4 0.457-0.659 0.515-0.96 0.057-0.256-0.028-0.672-0.143-0.515zM17.869 10.453c-0.043 0-0.1-0.057-0.1-0.057s-0.013-0.013 0.029-0.043c0.043-0.028 0.1-0.013 0.1-0.013l0.043 0.013 0.072 0.1c-0.013 0.043-0.1 0.015-0.144 0zM18.043 9.981c-0.044-0.013-0.116-0.057-0.116-0.057s-0.013-0.029 0.029-0.057c0.043-0.029 0.115-0.013 0.115-0.013l0.043 0.027c0.013 0.015 0.085 0.087 0.085 0.116 0 0.043-0.1 0-0.157-0.015zM18.199 9.495c-0.057-0.015-0.143-0.072-0.143-0.072s-0.013-0.028 0.043-0.057c0.057-0.028 0.144-0.013 0.144-0.013l0.057 0.027c0.028 0.029 0.1 0.101 0.1 0.144-0.013 0.043-0.144-0.013-0.2-0.028zM18.328 9.051c-0.057-0.013-0.143-0.072-0.143-0.072s-0.015-0.028 0.043-0.057c0.057-0.028 0.143-0.013 0.143-0.013l0.057 0.027c0.029 0.029 0.1 0.101 0.1 0.144-0.013 0.029-0.143-0.028-0.2-0.028zM18.457 8.52c-0.072-0.013-0.157-0.085-0.157-0.085s-0.015-0.028 0.043-0.072c0.057-0.043 0.157-0.013 0.157-0.013l0.057 0.028c0.028 0.029 0.115 0.115 0.115 0.157 0 0.057-0.157-0.013-0.215-0.013zM18.543 7.947c-0.085-0.013-0.2-0.099-0.2-0.099s-0.029-0.044 0.057-0.087c0.071-0.043 0.187-0.028 0.187-0.028l0.071 0.043c0.057 0.057 0.105 0.123 0.141 0.196l0.002 0.004c0 0.057-0.171-0.013-0.257-0.028zM18.6 7.375c-0.093-0.028-0.174-0.072-0.244-0.129l0.001 0.001s-0.029-0.044 0.057-0.101c0.085-0.056 0.228-0.028 0.228-0.028s0.044 0.013 0.087 0.043c0.043 0.043 0.157 0.173 0.172 0.244 0.013 0.071-0.2-0.013-0.301-0.029zM18.687 6.716c-0.115-0.013-0.272-0.143-0.272-0.143s-0.029-0.057 0.071-0.115c0.1-0.072 0.259-0.028 0.259-0.028s0.056 0.013 0.1 0.057c0.043 0.043 0.187 0.2 0.2 0.272 0 0.085-0.244-0.029-0.357-0.044zM18.627 4.053c-0.087-0.013-0.2-0.1-0.2-0.1s-0.029-0.029 0.056-0.072c0.087-0.043 0.2-0.013 0.2-0.013s0.044 0.013 0.072 0.041c0.029 0.029 0.144 0.129 0.144 0.187 0 0.043-0.187-0.028-0.272-0.043zM18.941 4.697c0.013 0.057-0.187-0.013-0.287-0.028-0.082-0.027-0.154-0.066-0.216-0.116l0.001 0.001s-0.028-0.043 0.057-0.087c0.085-0.057 0.2-0.028 0.2-0.028s0.044 0.013 0.087 0.043c0.063 0.060 0.116 0.131 0.155 0.21l0.002 0.004zM18.525 5.757c0.087-0.057 0.229-0.029 0.229-0.029s0.043 0.015 0.087 0.044c0.043 0.043 0.157 0.171 0.172 0.243 0.013 0.072-0.2-0.013-0.301-0.043-0.1-0.013-0.244-0.129-0.244-0.129s-0.028-0.028 0.057-0.085zM18.712 5.271c-0.1-0.015-0.244-0.129-0.244-0.129s-0.028-0.043 0.057-0.1c0.087-0.057 0.229-0.029 0.229-0.029s0.043 0.015 0.087 0.044c0.043 0.043 0.157 0.171 0.172 0.243 0.013 0.087-0.2 0-0.301-0.028zM18.899 3.123c0.115 0.028 0.143 0.1 0.085 0.1-0.057 0.013-0.085 0.013-0.129 0.013-0.128 0-0.113-0.056-0.285 0.029-0.173 0.087-0.044 0.043-0.287 0.129-0.229 0.085-0.172-0.144-0.172-0.144s0.013-0.043 0.043-0.157 0.173 0 0.272 0c0.187 0 0.344 0 0.473 0.029zM18.253 2.235l0.072 0.043c0.057 0.057 0.105 0.123 0.141 0.196l0.002 0.004c0.015 0.059-0.171-0.013-0.243-0.027-0.077-0.023-0.143-0.057-0.201-0.102l0.001 0.001s-0.029-0.043 0.057-0.087c0.071-0.056 0.171-0.028 0.171-0.028zM17.739 1.548c0.071-0.044 0.187-0.029 0.187-0.029l0.071 0.043c0.057 0.057 0.105 0.123 0.141 0.196l0.002 0.004c0.015 0.059-0.171-0.013-0.243-0.027-0.087-0.016-0.2-0.101-0.2-0.101s-0.029-0.043 0.043-0.085zM17.595 10.825c0.044-0.028 0.101-0.013 0.101-0.013l0.043 0.013 0.071 0.101c0 0.028-0.085-0.015-0.128-0.015s-0.1-0.057-0.1-0.057-0.029-0.013 0.013-0.029zM11.855 4.011c-0.043 0.028-0.072 0.043-0.129 0.085-0.071 0.057-0.143 0.2-0.187 0.157-0.056-0.043-0.027-0.2-0.027-0.2s0.043-0.115 0.099-0.229c0.072-0.115 0.159-0.115 0.159-0.115 0.085 0 0.243 0.057 0.243 0.187 0.013 0.128-0.085 0.071-0.157 0.115zM13.028 4.455s-0.056 0.013-0.071-0.087c-0.013-0.1 0.072-0.115 0.072-0.115s0.171-0.085 0.171 0.029c0.015 0.1-0.171 0.172-0.171 0.172zM14.561 2.507s-0.187 0.301-0.444 0.415c-0.259 0.115-0.429 0.173-0.917 0.216-0.071 0-0.043-0.044-0.043-0.044s0.56-0.157 0.873-0.329c0.164-0.091 0.305-0.185 0.437-0.29l-0.006 0.005c0.2-0.173 0.1 0.028 0.1 0.028zM4.939 14.907c0 0.072-0.085 0.2-0.115 0.2-0.028 0-0.085-0.128-0.072-0.2 0.015-0.072 0.029-0.272 0.144-0.243 0.085 0.013 0.043 0.171 0.043 0.243zM5.312 13.289s-0.129 0.272-0.173 0.157c-0.043-0.1 0.044-0.287 0.044-0.287 0.115-0.1 0.157-0.244 0.213-0.187 0.044 0.057-0.085 0.316-0.085 0.316zM7.085 10.496c-0.128 0.144-0.528 0.903-0.613 0.773-0.087-0.1 0.387-0.816 0.485-0.96 0.1-0.156 0.187-0.128 0.187-0.128l0.028 0.029c-0.013 0 0.044 0.143-0.085 0.285zM8.16 9.365s-0.285 0.057-0.243-0.043c0.057-0.1 0.257-0.144 0.257-0.144 0.157 0.029 0.187 0.044 0.172 0.115 0.013 0.072-0.187 0.072-0.187 0.072zM9.32 11.371c-0.128 0.128-0.172-0.044-0.357-0.259-0.187-0.2-0.144-0.372-0.144-0.372h0.029l0.028 0.013 0.072 0.029 0.187 0.187c0.057 0.085 0.213 0.373 0.187 0.4zM7.101 15.651c-0.044 0-0.087-0.085-0.087-0.085s-0.115-0.172-0.157-0.3c-0.043-0.115-0.057-0.301-0.057-0.301s-0.028-0.244-0.028-0.329c0.013-0.115 0.013-0.215 0.028-0.272 0.013-0.057 0.072-0.043 0.072-0.043 0.085 0 0.085 0.071 0.085 0.071v0.044s0 0.257 0.015 0.457c0 0.057 0.157 0.703 0.157 0.703s0.029 0.057-0.028 0.057zM7.072 12.644c-0.1 0.157-0.172 0.157-0.172 0.157 0-0.013-0.028-0.071 0.057-0.243 0.087-0.172 0.173-0.157 0.173-0.157l0.027 0.028s0.015 0.057-0.085 0.215zM8.089 18.644c0.028-0.057 0.213 0.085 0.213 0.085 0.072 0.015 0.144 0.144 0.144 0.144s0.029 0.1-0.057 0.128c-0.085 0.044-0.143-0.043-0.143-0.043s-0.187-0.257-0.157-0.315zM9.436 14.263c-0.201-0.043-0.631-0.373-0.803-0.459-0.173-0.085-0.459-0.115-0.329-0.229 0.013-0.013 0.028-0.043 0.057-0.043 0.028 0 0.157 0.043 0.157 0.043l0.315 0.129c0.013 0 0.172 0.072 0.301 0.143l0.315 0.2 0.085 0.072c0 0.029 0.1 0.187-0.1 0.144zM11.183 11.413s-0.244 0.329-0.387 0.529c-0.187 0.272-0.416 0.688-0.459 0.644-0.044-0.043 0.2-0.501 0.329-0.744 0.143-0.301 0.357-0.459 0.444-0.487 0.187-0.087 0.071 0.057 0.071 0.057zM10.409 25.747s0 0.057-0.101 0.128c-0.1 0.072-0.143 0.029-0.157 0.029-0.013 0-0.115-0.057-0.115-0.115 0.013-0.057 0.172-0.1 0.172-0.1 0.272-0.015 0.2 0.057 0.2 0.057zM12.628 25.66c-0.1-0.013-0.115-0.043-0.1-0.057 0-0.013 0.028-0.043 0.143-0.043s0.115 0.057 0.115 0.057c0 0.043-0.043 0.057-0.157 0.043zM15.176 25.804c-0.213 0.057-0.3 0.028-0.487 0.043-0.157 0.013-0.228 0.028-0.387 0.028-0.272 0-0.3 0.015-0.687-0.1-0.072-0.028-0.157-0.115-0.129-0.143 0.029-0.044 0.087-0.029 0.087-0.029s0.487 0.087 0.801 0.1c0.229 0.015 0.344 0.029 0.573 0.015 0.128 0 0.057-0.013 0.257-0.013 0.072-0.015 0.028 0.085-0.029 0.1zM16.536 25.403c-0.049 0.026-0.107 0.046-0.167 0.057l-0.003 0c-0.087 0.013-0.043-0.057-0.043-0.057s0.057-0.087 0.128-0.129c0.087-0.043 0.129 0 0.129 0 0.028 0.057-0.029 0.115-0.043 0.129zM17.596 22.653c-0.1 0.215-0.128 0.287-0.143 0.487-0.028 0.215 0.1 0.816-0.1 0.587-0.072-0.1-0.144-0.573-0.087-0.801 0.101-0.516 0.516-0.659 0.329-0.272zM14.704 31.403c-0.085 0.057 0.087 0.228-0.187 0.213-0.157-0.013-0.071-0.156-0.056-0.171l0.1-0.144c0.071-0.1 0.115-0.115 0.187-0.157 0.071-0.043 0.128 0.072 0.128 0.072s0.028 0.043 0.028 0.1c0 0.043-0.128 0.029-0.2 0.087zM16.208 29.956l-0.129 0.1c-0.013 0-0.1 0.072-0.129 0.029-0.028-0.044 0.015-0.101 0.015-0.115 0-0.015 0.087-0.115 0.157-0.144 0.072-0.043 0.115 0 0.115 0 0.043 0.1-0.028 0.129-0.028 0.129zM16.88 4.869s-0.057 0.187-0.171 0.229c-0.144 0.043-0.688 0.057-0.703 0.013-0.013-0.043 0.631-0.1 0.873-0.343 0.057-0.057 0 0.1 0 0.1zM16.68 4.397c0.043-0.072 0.013 0.115 0.013 0.115s-0.041 0.187-0.143 0.243c-0.128 0.072-0.443 0.157-0.472 0.115 0-0.028 0.415-0.157 0.601-0.472zM15.792 2.249s0.057 0 0.144 0.043c0.085 0.057 0.143 0.229 0.143 0.229s0.013 0.028-0.057 0.028c-0.043 0-0.043-0.071-0.085-0.1-0.057-0.043-0.101-0.057-0.173-0.085-0.071-0.029-0.171 0.013-0.185-0.057 0-0.087 0.215-0.057 0.215-0.057zM15.133 2.721s0.029-0.085 0.157-0.157c0.115-0.072 0.272-0.072 0.272-0.072s0.087 0 0.187 0.072c0.1 0.072 0.187 0.315 0.187 0.315s0.028 0.157-0.044 0.215c-0.071 0.057-0.187-0.043-0.243-0.128-0.051-0.071-0.126-0.123-0.212-0.143l-0.002-0.001c-0.115-0.043-0.287 0.087-0.315 0 0-0.028 0.013-0.1 0.013-0.1zM15.091 4.697c-0.085 0.013-0.028-0.072-0.028-0.072s0.243-0.1 0.4-0.187c0.259-0.128 0.745-0.643 0.616-0.4-0.057 0.115-0.229 0.257-0.229 0.257s-0.2 0.287-0.243 0.329c-0.187 0.144-0.416 0.057-0.516 0.072zM13.072 10.253l0.013-0.029s0.431-0.285 1.103-0.2c0.401 0.057 0.788 0.415 0.731 0.459-0.057 0.043-0.143 0-0.172 0l-0.143-0.072-0.215-0.057s-0.387-0.085-0.673-0.072c-0.287 0.015-0.544 0.115-0.544 0.115s-0.115 0.057-0.143-0.013c-0.015-0.087 0.043-0.129 0.043-0.129zM14.132 18.315c-0.988-0.76-2.192-2.305-2.048-2.448 0.129-0.115 0.616 0.6 1.347 1.388 0.773 0.831 1.675 1.619 1.703 1.719 0.057 0.172-0.629-0.373-1.001-0.659zM16.38 7.619c-0.416 0.716-0.988 1.26-0.988 1.26-0.2 0.143-0.072-0.115-0.072-0.115s0.559-0.773 0.816-1.317c0.187-0.387 0.301-0.903 0.387-1.003 0.2-0.243 0.1 0.745-0.143 1.173zM17.525 15.465c-0.429-0.516-0.745-1.075-0.845-1.776-0.028-0.157-0.028-0.387 0.115-0.357 0.129 0.013 0.115 0.257 0.115 0.315 0.043 0.415 0.215 0.831 0.529 1.332 0.444 0.701 1.16 1.245 1.132 1.288-0.072 0.072-0.788-0.487-1.045-0.801zM17.653 28.853c-0.198 0.178-0.412 0.356-0.634 0.526l-0.025 0.018h-0.057v-0.072l0.015-0.028 0.029-0.043 0.028-0.044 0.029-0.043 0.085-0.1 0.4-0.373 0.316-0.313s0.115-0.129 0.157-0.159c0.043-0.028 0.072-0.056 0.115-0.085 0.057-0.028 0.129-0.072 0.157-0.043v0.057c0.013 0.043-0.357 0.457-0.616 0.701zM18.541 18.257c-0.187 0.129-0.257 0.115-0.372 0.244-0.129 0.157-0.172 0.687-0.301 0.472-0.128-0.215-0.043-0.516 0.173-0.744 0.257-0.301 0.815-0.2 0.5 0.028zM19.215 27.679c0.085-0.028 0.129-0.013 0.129-0.013l0.028 0.057c0 0.013-0.115 0.171-0.172 0.171-0.072-0.013-0.043-0.1-0.043-0.1s-0.029-0.085 0.057-0.115zM21.663 21.852c-0.128-0.087 0.072-0.344 0.072-0.56 0-0.171-0.028-0.3-0.028-0.443 0-0.144 0.143-0.187 0.143-0.187 0.028 0 0.085 0.029 0.157 0.173 0.072 0.141-0.115 1.159-0.344 1.016zM26.044 17.756c-0.028 0.601-0.056 1.031-0.415 1.489-0.429 0.559-1.173 1.131-1.016 0.673 0.1-0.272 0.759-0.616 1.016-1.375 0.143-0.459 0.172-0.888 0.172-0.888l-0.029-0.873s-0.013-0.072-0.013-0.172c0.043-0.115 0.1-0.028 0.1-0.028l0.028 0.043c0 0.028 0.173 0.701 0.157 1.131zM15.377 0.76c0.115 0.057 0.157 0.1 0.272 0.129 0.1 0.028 0.243 0.1 0.272 0.013 0.043-0.085-0.013-0.2-0.087-0.3-0.113-0.187-0.171-0.229-0.329-0.487-0.028-0.057-0.056-0.116-0.113-0.116 0 0-0.015 0.187-0.072 0.3-0.043 0.1-0.157 0.173-0.144 0.244 0.015 0.071 0.087 0.157 0.2 0.213z"></path>
</symbol>

<!-- Support -->
<symbol id="icon-support" viewBox="0 0 32 32">
<path d="M26.4 13.573c-0.413-4.24-2.92-10.907-10.667-10.907s-10.253 6.667-10.667 10.907c-1.45 0.55-2.406 1.942-2.4 3.493v1.867c0 2.062 1.672 3.733 3.733 3.733s3.733-1.671 3.733-3.733v-1.867c-0.007-1.517-0.928-2.881-2.333-3.453 0.267-2.453 1.573-8.28 7.933-8.28s7.653 5.827 7.92 8.28c-1.402 0.574-2.319 1.938-2.32 3.453v1.867c0.006 1.433 0.829 2.738 2.12 3.36-0.56 1.053-1.987 2.48-5.493 2.907-0.701-1.064-2.057-1.484-3.237-1.001s-1.853 1.732-1.607 2.983c0.246 1.251 1.342 2.152 2.617 2.152 1.007-0.006 1.925-0.578 2.373-1.48 5.72-0.653 7.547-3.6 8.12-5.333 1.551-0.502 2.594-1.956 2.573-3.587v-1.867c0.006-1.551-0.95-2.943-2.4-3.493zM7.467 18.933v-1.867c0-0.381-0.203-0.733-0.533-0.924s-0.737-0.191-1.067 0c-0.33 0.191-0.533 0.543-0.533 0.924v1.867c0 0.589 0.478 1.067 1.067 1.067s1.067-0.478 1.067-1.067zM24 17.067c0-0.589 0.478-1.067 1.067-1.067s1.067 0.478 1.067 1.067v1.867c0 0.589-0.478 1.067-1.067 1.067s-1.067-0.478-1.067-1.067v-1.867z"></path>
</symbol>

<!-- Mechanic Tool -->
<symbol id="icon-mechanic-tool" viewBox="0 0 32 32">
<path d="M31.851 7.019c-0.049-0.261-0.207-0.752-0.861-0.099l-4.174 4.173c-0.575 0.575-1.516 0.575-2.091 0l-3.82-3.82c-0.575-0.575-0.575-1.516 0-2.091l4.174-4.173c0.645-0.645 0.027-0.843-0.303-0.897-2.644-0.432-5.451 0.372-7.49 2.411-2.409 2.409-3.161 5.684-2.122 8.702 0.060 0.175 0.301 0.691-0.128 1.12 0 0-5.264 5.264-6.975 6.975-0.387 0.387-0.629 0.155-0.629 0.155-0.503-0.503-1.326-0.503-1.829 0l-5.226 5.227c-0.503 0.503-0.503 1.326 0 1.829l5.090 5.090c0.503 0.503 1.326 0.503 1.829 0l5.226-5.227c0.503-0.503 0.503-1.326 0-1.829 0 0-0.188-0.285 0.155-0.629 1.711-1.711 6.975-6.975 6.975-6.975 0.445-0.445 0.78-0.244 0.916-0.195 3.044 1.097 6.466 0.386 8.906-2.054 2.092-2.092 2.883-4.991 2.375-7.695zM8.121 27.211c-0.92 0.92-2.412 0.92-3.332 0s-0.92-2.412 0-3.332c0.92-0.92 2.412-0.92 3.332 0s0.92 2.412 0 3.332z"></path>
</symbol>

<!-- Budget calculator -->
<symbol id="icon-budget-calculator" viewBox="0 0 32 32">
<path d="M29.296 0.631v0c0 0-0.091 0 0 0-0.27-0.451-0.722-0.631-1.172-0.631v0h-24.248c-0.812 0-1.442 0.631-1.442 1.442v0 29.115c0 0.27 0.090 0.541 0.27 0.812v0 0c0.27 0.361 0.721 0.63 1.172 0.63v0h24.248c0.811 0 1.442-0.63 1.442-1.442v0-29.115c-0.091-0.36-0.18-0.541-0.27-0.811zM11.628 27.494c0 0.361-0.27 0.631-0.631 0.631h-3.335c-0.361 0-0.631-0.271-0.631-0.631v-1.442c0-0.361 0.27-0.631 0.631-0.631h3.335c0.361 0 0.631 0.27 0.631 0.631v1.442zM11.628 22.626c0 0.361-0.27 0.631-0.631 0.631h-3.335c-0.361 0-0.631-0.27-0.631-0.631v-1.442c0-0.361 0.27-0.631 0.631-0.631h3.335c0.361 0 0.631 0.27 0.631 0.631v1.442zM11.628 17.849c0 0.361-0.27 0.63-0.631 0.63h-3.335c-0.361 0-0.631-0.27-0.631-0.63v-1.442c0-0.361 0.27-0.631 0.631-0.631h3.335c0.361 0 0.631 0.27 0.631 0.631v1.442zM18.208 27.494c0 0.361-0.27 0.631-0.63 0.631h-3.336c-0.361 0-0.631-0.271-0.631-0.631v-1.442c0-0.361 0.271-0.631 0.631-0.631h3.336c0.361 0 0.63 0.27 0.63 0.631v1.442zM18.208 22.626c0 0.361-0.27 0.631-0.63 0.631h-3.336c-0.361 0-0.631-0.27-0.631-0.631v-1.442c0-0.361 0.271-0.631 0.631-0.631h3.336c0.361 0 0.63 0.27 0.63 0.631v1.442zM18.208 17.849c0 0.361-0.27 0.63-0.63 0.63h-3.336c-0.361 0-0.631-0.27-0.631-0.63v-1.442c0-0.361 0.271-0.631 0.631-0.631h3.336c0.361 0 0.63 0.27 0.63 0.631v1.442zM24.879 27.494c0 0.361-0.27 0.631-0.631 0.631h-3.334c-0.361 0-0.631-0.271-0.631-0.631v-1.442c0-0.361 0.27-0.631 0.631-0.631h3.334c0.361 0 0.631 0.27 0.631 0.631v1.442zM24.879 22.626c0 0.361-0.27 0.631-0.631 0.631h-3.334c-0.361 0-0.631-0.27-0.631-0.631v-1.442c0-0.361 0.27-0.631 0.631-0.631h3.334c0.361 0 0.631 0.27 0.631 0.631v1.442zM24.879 17.849c0 0.361-0.27 0.63-0.631 0.63h-3.334c-0.361 0-0.631-0.27-0.631-0.63v-1.442c0-0.361 0.27-0.631 0.631-0.631h3.334c0.361 0 0.631 0.27 0.631 0.631v1.442zM25.149 12.801v0c0 0.361-0.271 0.63-0.631 0.63h-17.217c-0.361 0-0.631-0.27-0.631-0.63v-8.383c0-0.361 0.27-0.631 0.631-0.631h17.217c0.361 0 0.631 0.27 0.631 0.631v8.383z"></path>
<path d="M11.448 7.933c-0.63-0.27-0.901-0.361-0.901-0.631 0-0.18 0.179-0.361 0.63-0.361 0.541 0 0.812 0.18 0.992 0.27l0.18-0.811c-0.27-0.090-0.541-0.18-0.992-0.27v-0.631h-0.721v0.721c-0.721 0.18-1.172 0.631-1.172 1.262 0 0.722 0.541 1.082 1.262 1.262 0.542 0.18 0.721 0.361 0.721 0.631s-0.27 0.451-0.721 0.451c-0.45 0-0.901-0.18-1.171-0.27l-0.18 0.812c0.27 0.179 0.721 0.27 1.172 0.27v0.721h0.721v-0.812c0.811-0.179 1.262-0.721 1.262-1.351 0.089-0.542-0.271-0.992-1.083-1.263z"></path>
<path d="M16.316 7.933c-0.631-0.27-0.901-0.361-0.901-0.631 0-0.18 0.18-0.361 0.631-0.361 0.541 0 0.812 0.18 0.992 0.27l0.18-0.811c-0.271-0.090-0.541-0.18-0.992-0.27v-0.631h-0.721v0.721c-0.721 0.18-1.172 0.631-1.172 1.262 0 0.722 0.542 1.082 1.263 1.262 0.541 0.18 0.721 0.361 0.721 0.631s-0.271 0.451-0.721 0.451c-0.451 0-0.901-0.18-1.172-0.27l-0.18 0.812c0.27 0.179 0.721 0.27 1.172 0.27v0.721h0.721v-0.812c0.811-0.179 1.262-0.721 1.262-1.351 0.18-0.542-0.181-0.992-1.083-1.263z"></path>
<path d="M21.273 7.933c-0.63-0.27-0.901-0.361-0.901-0.631 0-0.18 0.179-0.361 0.63-0.361 0.541 0 0.812 0.18 0.991 0.27l0.181-0.811c-0.27-0.090-0.542-0.18-0.992-0.27v-0.631h-0.721v0.721c-0.722 0.18-1.172 0.631-1.172 1.262 0 0.722 0.541 1.082 1.262 1.262 0.542 0.18 0.722 0.361 0.722 0.631s-0.27 0.451-0.722 0.451c-0.45 0-0.901-0.18-1.171-0.27l-0.18 0.811c0.27 0.179 0.721 0.27 1.171 0.27v0.721h0.721v-0.812c0.812-0.179 1.263-0.721 1.263-1.351 0.089-0.542-0.271-0.992-1.083-1.263z"></path>
</symbol>

<!-- Payment -->
<symbol id="icon-payment" viewBox="0 0 32 32">
<path d="M8.667 2.667h-2c-1.467 0-2.667 1.2-2.667 2.667v15.97c0 1.467 1.2 2.667 2.667 2.667h2v-21.303z"></path>
<path d="M26.819 14.329l-6.819-6.818v-2.178c0-1.467-1.2-2.667-2.667-2.667h-4.667v21.303h4.667c1.467 0 2.667-1.2 2.667-2.667v-2.475l1.413 1.413 1.886-1.885-7.309-7.309c-0.252-0.252-0.39-0.589-0.389-0.949 0.001-0.356 0.138-0.689 0.389-0.939 0.503-0.503 1.386-0.502 1.888 0l7.066 7.067-0.048-0.015 0.073 0.048c0.087 0.131 0.365 0.632 0.365 1.711v8.667h-10.667c-1.277 0-2.403-1.089-2.622-2.533l-0.015-0.104h-2.697l0.076 0.503c0.414 2.737 2.675 4.801 5.259 4.801h13.333v-11.333c-0.001-2.315-0.897-3.365-1.182-3.641z"></path>
</symbol>

<!-- Help -->
<symbol id="icon-help" viewBox="0 0 32 32">
<path d="M28.8 26.667v-15.238c0-0.841-0.717-1.524-1.6-1.524h-22.4c-0.883 0-1.6 0.683-1.6 1.524v15.238c0 0.841 0.717 1.524 1.6 1.524h22.4c0.883 0 1.6-0.683 1.6-1.524v0zM12.8 5.333v0c0-0.841 0.717-1.524 1.6-1.524h3.2c0.883 0 1.6 0.683 1.6 1.524v1.524h-6.4v-1.524zM28.8 6.857c1.768 0 3.2 1.364 3.2 3.048v18.286c0 1.684-1.432 3.048-3.2 3.048h-25.6c-1.768 0-3.2-1.364-3.2-3.048v-18.286c0-1.684 1.432-3.048 3.2-3.048h6.4v-3.048c0-1.684 1.432-3.048 3.2-3.048h6.4c1.768 0 3.2 1.364 3.2 3.048v3.048h6.4zM14.4 23.619v0c0 0.841 0.717 1.524 1.6 1.524s1.6-0.683 1.6-1.524v-3.048h3.2c0.883 0 1.6-0.683 1.6-1.524s-0.717-1.524-1.6-1.524h-3.2v-3.048c0-0.841-0.717-1.524-1.6-1.524s-1.6 0.683-1.6 1.524v3.048h-3.2c-0.883 0-1.6 0.683-1.6 1.524s0.717 1.524 1.6 1.524h3.2v3.048z"></path>
</symbol>

<!-- Apple -->
<symbol id="icon-appleinc" viewBox="0 0 32 32">
<path d="M24.734 17.003c-0.040-4.053 3.305-5.996 3.454-6.093-1.88-2.751-4.808-3.127-5.851-3.171-2.492-0.252-4.862 1.467-6.127 1.467-1.261 0-3.213-1.43-5.28-1.392-2.716 0.040-5.221 1.579-6.619 4.012-2.822 4.897-0.723 12.151 2.028 16.123 1.344 1.944 2.947 4.127 5.051 4.049 2.026-0.081 2.793-1.311 5.242-1.311s3.138 1.311 5.283 1.271c2.18-0.041 3.562-1.981 4.897-3.931 1.543-2.255 2.179-4.439 2.216-4.551-0.048-0.022-4.252-1.632-4.294-6.473zM20.705 5.11c1.117-1.355 1.871-3.235 1.665-5.11-1.609 0.066-3.559 1.072-4.713 2.423-1.036 1.199-1.942 3.113-1.699 4.951 1.796 0.14 3.629-0.913 4.747-2.264z"></path>
</symbol>

<!-- Google Play -->
<symbol id="icon-google-play" viewBox="0 0 48 32">
<path fill="#00bcff" style="fill: var(--color1, #00bcff)" d="M10.214 0.502c-0.36 0.43-0.579 0.988-0.579 1.598 0 0.051 0.002 0.102 0.005 0.153l-0-0.007v27.512c-0.002 0.042-0.004 0.090-0.004 0.139 0 0.612 0.218 1.173 0.582 1.609l-0.003-0.004 0.094 0.094 15.406-15.417v-0.366l-15.406-15.406z"></path>
<path fill="#ffc600" style="fill: var(--color1, #ffc600)" d="M30.853 21.318l-5.139-5.139v-0.366l5.139-5.128 0.115 0.063 6.089 3.457c1.744 0.982 1.744 2.601 0 3.593l-6.089 3.457z"></path>
<path fill="#f23349" style="fill: var(--color1, #f23349)" d="M30.967 21.256l-5.222-5.222-15.531 15.469c0.358 0.296 0.821 0.475 1.327 0.475 0.463 0 0.892-0.151 1.238-0.406l-0.006 0.004 18.163-10.319z"></path>
<path fill="#01de76" style="fill: var(--color1, #01de76)" d="M30.967 10.748l-18.195-10.33c-0.336-0.261-0.764-0.418-1.229-0.418-0.511 0-0.977 0.19-1.332 0.503l0.002-0.002 15.5 15.5z"></path>
<path d="M30.853 21.141l-18.080 10.257c-0.344 0.258-0.778 0.414-1.248 0.414s-0.904-0.155-1.254-0.418l0.005 0.004-0.094 0.094 0.094 0.094c0.344 0.258 0.778 0.414 1.248 0.414s0.904-0.155 1.254-0.418l-0.005 0.004 18.163-10.319z"></path>
<path d="M10.214 31.335c-0.36-0.435-0.578-0.998-0.578-1.613 0-0.050 0.001-0.099 0.004-0.149l-0 0.007v0.178c-0.002 0.042-0.004 0.090-0.004 0.139 0 0.612 0.218 1.173 0.582 1.609l-0.003-0.004 0.094-0.094z"></path>
<path d="M37.057 17.61l-6.204 3.53 0.115 0.115 6.089-3.499c0.715-0.32 1.222-0.991 1.305-1.787l0.001-0.009c-0.151 0.739-0.638 1.34-1.291 1.644l-0.014 0.006z"></path>
<path d="M12.773 0.606l24.284 13.777c0.662 0.303 1.147 0.892 1.303 1.604l0.003 0.015c-0.079-0.808-0.588-1.48-1.292-1.791l-0.014-0.005-24.284-13.787c-1.713-0.982-3.133-0.167-3.133 1.828v0.178c0-1.985 1.421-2.81 3.133-1.817z"></path>
</symbol>

<!-- Star Icon -->
<symbol id="icon-star" viewBox="0 0 32 32">
<path d="M17.545 1.659l3.609 7.313c0.251 0.509 0.736 0.861 1.298 0.943l8.071 1.173c1.414 0.206 1.978 1.942 0.955 2.939l-5.84 5.692c-0.406 0.396-0.591 0.967-0.495 1.525l1.378 8.038c0.242 1.408-1.236 2.481-2.5 1.817l-7.218-3.795c-0.502-0.264-1.102-0.264-1.604 0l-7.218 3.795c-1.264 0.665-2.742-0.409-2.5-1.817l1.378-8.038c0.096-0.559-0.089-1.129-0.495-1.525l-5.84-5.692c-1.023-0.997-0.459-2.734 0.955-2.939l8.071-1.173c0.561-0.081 1.047-0.434 1.298-0.943l3.609-7.313c0.631-1.281 2.458-1.281 3.090 0z"></path>
</symbol>
</defs>
</svg>
